<?xml version="1.0" encoding="UTF-8" standalone="no"?>
<!-- Created with Inkscape (http://www.inkscape.org/) -->

<svg
   width="224.49321mm"
   height="164.13271mm"
   viewBox="0 0 224.49321 164.13271"
   version="1.1"
   id="svg1"
   xml:space="preserve"
   xmlns="http://www.w3.org/2000/svg"
   xmlns:svg="http://www.w3.org/2000/svg"><defs
     id="defs1" /><g
     id="layer1"
     transform="translate(141.80342,-40.121978)"><path
       style="fill:#000000;stroke:#000000;stroke-width:1.67258"
       d="m -88.976931,201.89285 -3.11451,-1.53198 -0.297817,-4.04638 -0.297817,-4.04639 3.173822,-2.09657 3.173821,-2.09656 3.317204,1.56984 c 1.824461,0.86343 3.427258,1.7016 3.561768,1.8626 0.134579,0.161 0.31246,2.0057 0.395349,4.09932 l 0.150767,3.8066 -2.886284,1.99917 c -1.587459,1.09954 -3.150811,2.00212 -3.474117,2.00575 -0.323313,0.004 -1.989374,-0.68281 -3.702342,-1.52539 z m 48.845005,-3.82357 -3.217936,-1.64807 -0.385047,-3.51056 c -0.211718,-1.93082 -0.251628,-3.73769 -0.08856,-4.01529 0.163033,-0.2776 1.646256,-1.43431 3.296038,-2.57049 l 2.999605,-2.06577 3.496241,1.60138 3.496223,1.60137 0.327666,4.04199 0.327665,4.04197 -2.987868,2.04485 c -1.643309,1.12467 -3.225986,2.06326 -3.517032,2.08576 -0.291063,0.0225 -1.977254,-0.7007 -3.747114,-1.60713 z m 97.639998,-7.49966 -3.117361,-1.56884 -0.301566,-4.02988 -0.301565,-4.02989 3.193276,-2.11983 3.193293,-2.11985 3.410798,1.60915 3.410781,1.60913 0.319089,4.06143 0.319089,4.06142 -2.917221,2.02062 c -1.604465,1.11132 -3.181028,2.03289 -3.503451,2.04792 -0.322434,0.0149 -1.989051,-0.67863 -3.703589,-1.5415 z m -155.741532,-2.19222 -3.34142,-1.59639 -0.29712,-3.84224 -0.29713,-3.84223 3.054797,-2.11008 c 1.680153,-1.16053 3.260833,-2.13228 3.512669,-2.1594 0.251791,-0.0275 1.954021,0.676 3.782652,1.56254 l 3.324783,1.61188 0.302624,3.91336 0.302625,3.91337 -2.987852,2.04485 c -1.643325,1.12466 -3.219021,2.05744 -3.501529,2.07278 -0.282563,0.0148 -2.017302,-0.69043 -3.855099,-1.56844 z m 48.979781,-3.72929 -3.337104,-1.54061 -0.302969,-3.91782 -0.302968,-3.91781 3.037456,-2.10387 c 1.670592,-1.15714 3.244454,-2.11362 3.49745,-2.12552 0.253024,-0.0115 1.964302,0.70526 3.802893,1.59368 l 3.342883,1.61534 0.297342,3.84505 0.29734,3.84503 -3.112984,2.10448 c -1.712137,1.15746 -3.28605,2.11307 -3.497601,2.12357 -0.211487,0.0113 -1.886324,-0.67417 -3.721738,-1.52152 z m 32.410578,-2.54606 -3.131177,-1.5399 -0.183168,-4.01082 -0.18317,-4.01082 3.086671,-2.15904 3.086655,-2.15905 3.305381,1.5916 c 1.8179707,0.87536 3.4159068,1.72921 3.5509755,1.89743 0.135134,0.16819 0.3134717,2.01879 0.396362,4.11243 l 0.1507661,3.80658 -2.8862844,1.99917 c -1.5874592,1.09954 -3.1508102,2.00213 -3.4741162,2.00575 -0.323314,0.004 -1.996864,-0.68638 -3.71901,-1.53332 z m 16.34453447,-1.21861 -3.11499397,-1.53823 -0.3039581,-4.06076 -0.3039563,-4.06075 3.1572968,-2.0957 3.1572995,-2.09567 3.4419389,1.58534 3.4419572,1.58537 0.3241136,4.06103 0.3241045,4.06104 -2.9172231,2.0206 c -1.6044809,1.11132 -3.1810162,2.03302 -3.5034291,2.04819 -0.3224516,0.0149 -1.9879661,-0.6646 -3.70119975,-1.51061 z m 16.26304853,-1.34038 -3.178098,-1.62969 -0.285985,-3.96071 c -0.156715,-2.17842 -0.125645,-4.03253 0.0703,-4.12033 0.195947,-0.0878 1.587916,-1.02117 3.093286,-2.07415 l 2.737019,-1.91451 3.553379,1.54824 3.553398,1.54827 0.319339,4.0426 0.319341,4.04263 -2.987853,2.04485 c -1.643325,1.12466 -3.218992,2.0578 -3.501478,2.07364 -0.282548,0.0148 -1.943732,-0.70458 -3.691692,-1.60092 z m 23.651515,-15.80087 -3.532091,-1.69163 -0.303184,-3.92059 -0.303183,-3.92059 3.189602,-2.21399 3.189602,-2.214 3.307101,1.56503 c 1.818905,0.86077 3.469195,1.76338 3.667291,2.00581 0.198094,0.2424 0.486262,2.03159 0.640363,3.97596 l 0.280101,3.53521 -3.301793,2.2852 -3.30181,2.28522 z m -163.228617,12.41377 -3.11544,-1.54389 -0.30141,-3.89765 -0.30141,-3.89765 3.03744,-2.10387 c 1.67061,-1.15712 3.24446,-2.1136 3.49747,-2.12551 0.25302,-0.0115 1.9643,0.70525 3.80288,1.59368 l 3.34288,1.61535 0.29805,3.85415 0.29804,3.85413 -3.07957,2.09274 c -1.69375,1.151 -3.36845,2.0949 -3.72154,2.09756 -0.3531,0.003 -2.04392,-0.68989 -3.75739,-1.53904 z m 32.635908,-2.50461 -3.13383,-1.577 -0.183822,-4.01711 -0.183823,-4.0171 3.090725,-2.08385 3.090726,-2.08384 3.418572,1.56802 3.418574,1.56803 0.209827,4.17767 0.209826,4.17765 -2.738887,1.89034 c -1.506398,1.03968 -3.037044,1.9092 -3.401441,1.93226 -0.364389,0.0232 -2.072757,-0.66773 -3.796364,-1.53508 z m 16.343979,-1.22318 -3.114993,-1.53821 -0.314253,-4.06373 -0.314253,-4.06374 3.172942,-2.01703 3.172959,-2.01704 3.445324,1.50524 3.445339,1.50523 0.314376,4.06532 0.314374,4.06531 -2.865892,2.01687 c -1.576238,1.10928 -3.152782,2.03108 -3.503411,2.04845 -0.350666,0.0171 -2.039278,-0.66064 -3.752512,-1.50667 z m 16.440352,-1.20696 -2.999896,-1.48464 -0.471205,-3.22354 c -0.699301,-4.78388 -0.706218,-4.76616 2.770188,-7.08202 l 3.111912,-2.07302 3.374337,1.58388 3.374355,1.5839 0.438987,4.0302 0.438988,4.03021 -2.932668,2.0313 c -1.612967,1.11721 -3.196428,2.04414 -3.518802,2.05983 -0.322434,0.0149 -1.936087,-0.63955 -3.586013,-1.45611 z m 16.744146,-1.00061 c -4.182418,-1.99207 -4.094487,-1.87265 -4.413157,-5.9935 l -0.283452,-3.66543 3.114282,-2.04736 c 1.712855,-1.12603 3.376129,-2.06759 3.69614,-2.09233 0.320013,-0.0247 1.995698,0.65351 3.72374,1.50727 l 3.141899,1.55229 0.302607,3.91313 0.302605,3.91312 -2.987869,2.04485 c -1.643324,1.12468 -3.219062,2.05668 -3.501654,2.07115 -0.282564,0.0148 -1.67541,-0.52697 -3.095141,-1.20319 z m 15.54935,-1.63358 -3.357334,-1.60392 -0.17636,-3.9141 -0.17636,-3.9141 3.221956,-2.16007 3.221937,-2.16006 3.510333,1.68749 3.510346,1.68747 0.302968,3.91782 0.302968,3.9178 -2.987868,2.04485 c -1.643325,1.12467 -3.219006,2.05743 -3.501527,2.07281 -0.282564,0.0148 -2.024481,-0.69383 -3.871009,-1.576 z m 16.3455064,-1.19692 -3.3371044,-1.54061 -0.301524,-3.89913 -0.301523,-3.89913 3.054798,-2.11 c 1.6801255,-1.16054 3.2617112,-2.13234 3.5146292,-2.15957 0.2528749,-0.0276 1.9561783,0.6898 3.7850374,1.59339 l 3.32519712,1.64283 0.30080057,3.88978 0.30080133,3.88978 -3.11428192,2.04735 c -1.7128554,1.12605 -3.288765,2.05605 -3.5020008,2.06668 -0.213188,0.0115 -1.8894246,-0.67393 -3.7248226,-1.52128 z m 16.3250898,-1.26244 -3.3371041,-1.54061 -0.3005846,-3.88698 -0.3005855,-3.887 3.0330897,-2.13453 c 1.6682121,-1.17401 3.2409857,-2.14435 3.4950823,-2.15636 0.254108,-0.0116 1.966269,0.70511 3.804861,1.59355 l 3.342883,1.61535 0.301739,3.90191 0.301741,3.90193 -3.114298,2.04735 c -1.712855,1.12604 -3.288748,2.05604 -3.502001,2.06668 -0.213171,0.0115 -1.8894078,-0.67394 -3.7248228,-1.52129 z m 16.1021478,-1.27558 -3.114493,-1.53196 -0.300402,-3.88463 -0.300404,-3.88465 3.033089,-2.13453 c 1.668196,-1.17402 3.24097,-2.14436 3.495066,-2.15636 0.254108,-0.0116 1.966269,0.7051 3.804861,1.59354 l 3.342885,1.61536 0.29734,3.84503 0.297342,3.84505 -3.11297,2.10446 c -1.712136,1.15746 -3.386314,2.10812 -3.720394,2.11256 -0.334071,0.005 -2.008934,-0.68129 -3.72192,-1.52387 z m 48.961179,-3.75974 -3.131884,-1.54644 -0.18412,-4.0253 -0.184122,-4.02531 3.011108,-2.10618 3.011126,-2.10616 3.384801,1.5888 3.3848,1.58881 0.438987,4.0302 0.438821,4.03022 -2.932667,2.0313 c -1.612967,1.11722 -3.196462,2.04372 -3.518875,2.0589 -0.322434,0.0149 -1.99555,-0.66831 -3.718074,-1.51884 z m -188.142148,0.48004 -3.57097,-1.69503 -0.27028,-3.58585 c -0.1495,-1.97214 -0.14088,-3.80672 0.0176,-4.07671 0.15847,-0.27 1.65113,-1.41613 3.31706,-2.54695 l 3.0289,-2.05607 3.49268,1.72889 3.49268,1.72889 0.30239,3.91032 0.30239,3.91032 -3.05596,2.09504 c -1.68077,1.15227 -3.15256,2.13712 -3.27064,2.18858 -0.11816,0.0514 -1.82164,-0.66918 -3.78567,-1.60145 z m 48.979912,-3.72759 -3.573249,-1.72448 -0.301068,-3.89324 -0.301067,-3.89323 3.054792,-2.11007 c 1.680125,-1.16055 3.253337,-2.12544 3.496005,-2.1442 0.24267,-0.0188 1.945522,0.69278 3.784097,1.58122 l 3.342883,1.61534 0.300872,3.8907 0.300872,3.8907 -2.426423,1.62611 c -1.334547,0.89436 -2.803989,1.90951 -3.265444,2.25588 -0.733963,0.55091 -1.286452,0.41383 -4.41227,-1.09473 z m -32.888602,2.31191 -3.34162,-1.599 -0.29824,-3.85672 -0.29825,-3.85674 3.11429,-2.04734 c 1.71286,-1.12605 3.352952,-2.06581 3.644665,-2.08837 0.291696,-0.0226 1.968446,0.66948 3.726105,1.53787 l 3.195725,1.57888 0.300242,3.88255 0.300241,3.88254 -2.987852,2.04486 c -1.643324,1.12467 -3.218678,2.06187 -3.500764,2.08266 -0.282101,0.0208 -2.01663,-0.68173 -3.854542,-1.56119 z m 16.328262,-1.22156 -3.337105,-1.54062 -0.30006,-3.88021 -0.300062,-3.88021 3.006049,-2.0653 c 1.653311,-1.1359 3.260127,-2.08493 3.570699,-2.10895 0.310574,-0.024 2.034695,0.65885 3.831392,1.5175 l 3.266728,1.56119 0.301739,3.90191 0.301741,3.90193 -3.114282,2.04736 c -1.712855,1.12604 -3.288764,2.05605 -3.502015,2.06669 -0.213172,0.0115 -1.889412,-0.67396 -3.724824,-1.52129 z m 32.427594,-2.53364 -3.117362,-1.56884 -0.299156,-3.86851 -0.299158,-3.86853 2.915007,-2.05142 c 1.603236,-1.1283 3.178305,-2.06917 3.500134,-2.09082 0.321811,-0.0219 2.086349,0.6476 3.921168,1.48725 l 3.336025,1.52667 0.299835,3.87729 0.299836,3.87731 -3.079569,2.09273 c -1.693763,1.15101 -3.367536,2.1069 -3.719493,2.12422 -0.351967,0.0172 -2.04273,-0.67448 -3.757267,-1.53735 z m 16.327503,-1.23123 -3.114976,-1.53821 -0.30391,-3.92998 -0.303909,-3.92998 2.865875,-2.01688 c 1.576239,-1.10927 3.127721,-2.03712 3.447734,-2.06187 0.320011,-0.0247 2.108268,0.64991 3.973879,1.49923 l 3.39202,1.5442 0.297902,3.85228 0.2979,3.85227 -3.112968,2.10448 c -1.712137,1.15745 -3.385584,2.11755 -3.71877,2.13357 -0.333207,0.0157 -2.007526,-0.66309 -3.720777,-1.50911 z m 16.325107,-1.26243 -3.114993,-1.53821 -0.305935,-3.95618 -0.305935,-3.95617 1.366471,-0.9835 c 0.751577,-0.54093 2.180616,-1.49739 3.175647,-2.12546 l 1.809161,-1.14192 3.009203,1.31562 c 1.655052,0.7236 3.25777,1.57204 3.561607,1.88544 0.5124759,0.52861 1.073839,7.29126 0.6701283,8.07349 -0.2811377,0.54481 -5.5421213,3.9079 -6.1589193,3.9371 -0.325336,0.0151 -1.993236,-0.66419 -3.706487,-1.51021 z m 16.3259917,-1.25077 -3.1164157,-1.55662 -0.3103773,-4.05707 -0.3103795,-4.05709 3.1718937,-2.01845 3.17189241,-2.01846 1.94925019,0.84903 c 1.0720789,0.46698 2.6248782,1.19184 3.4506658,1.61077 l 1.5014497,0.76174 0.3060566,3.95774 0.3060565,3.95775 -2.865892,2.01687 c -1.5762376,1.10929 -3.1522364,2.03793 -3.5022335,2.06367 -0.34997244,0.0261 -2.03874133,-0.6537 -3.7527575,-1.50982 z m 16.4435903,-1.16509 -2.996951,-1.44678 -0.437121,-4.16008 -0.4371204,-4.16009 2.9499214,-1.89256 c 1.622456,-1.04095 3.193356,-1.91142 3.490873,-1.93443 0.297516,-0.023 1.954792,0.6567 3.682834,1.51045 l 3.141883,1.55229 0.30405,3.93179 0.30405,3.93181 -2.917222,2.0206 c -1.604464,1.11133 -3.180704,2.03707 -3.502735,2.05719 -0.322049,0.0199 -1.934145,-0.61445 -3.582462,-1.41019 z m 16.789767,-0.99336 c -4.111449,-1.92624 -4.147299,-1.97311 -4.444087,-5.811 -0.298494,-3.85995 -0.321831,-3.81893 3.756789,-6.61471 l 2.578165,-1.76726 3.519026,1.69167 3.519041,1.69165 0.304412,3.93648 0.304413,3.93649 -2.917222,2.0206 c -1.604481,1.11134 -3.180547,2.03911 -3.502404,2.06169 -0.321817,0.0229 -1.725001,-0.49294 -3.118133,-1.14561 z m 31.845066,-2.89167 -3.337106,-1.54063 -0.301524,-3.89913 -0.301524,-3.89913 3.054793,-2.11008 c 1.680141,-1.16054 3.253336,-2.12543 3.496006,-2.1442 0.242668,-0.0188 1.945521,0.69278 3.784095,1.58122 l 3.342883,1.61534 0.301181,3.89469 0.301179,3.89468 -2.98785,2.04486 c -1.643326,1.12467 -3.218983,2.05794 -3.50144,2.07393 -0.28241,0.0168 -2.015281,-0.66422 -3.850693,-1.51155 z m -155.19939,-1.89618 -3.416028,-1.58652 -0.438553,-4.02459 -0.438554,-4.02459 2.932669,-2.03129 c 1.612967,-1.11722 3.152991,-2.04834 3.422274,-2.06916 0.269301,-0.0208 1.932259,0.59959 3.695461,1.37869 l 3.20582,1.41656 0.207963,4.18176 0.207961,4.18173 -2.981576,2.08197 -2.981593,2.08197 z m 32.463426,-2.53039 -3.231796,-1.61363 -0.319643,-4.13343 -0.319642,-4.13343 2.738813,-1.89152 c 1.506329,-1.04036 3.001675,-1.91578 3.322969,-1.94542 0.321279,-0.0299 2.021121,0.64278 3.777369,1.49422 l 3.193192,1.54807 0.301396,3.89749 c 0.33789,4.36938 0.508725,4.04474 -3.482859,6.61902 l -2.74802,1.77226 z m 48.634788,-3.88562 -3.574153,-1.73618 -0.298587,-3.86114 -0.298586,-3.86114 3.231412,-2.18637 c 1.777283,-1.2025 3.3593897,-2.16019 3.5157972,-2.1282 0.156478,0.032 1.7793426,0.77263 3.6065581,1.64586 l 3.3222094,1.5877 0.3008876,3.89091 0.3008885,3.89091 -2.0027566,1.36511 c -1.1015088,0.75082 -2.57128,1.76193 -3.2661358,2.24692 l -1.2633805,0.88181 z m 16.3269562,-1.23831 -3.572864,-1.71949 -0.30106738,-3.89323 -0.30106887,-3.89325 2.98786585,-2.04489 c 1.6433255,-1.12466 3.2419603,-2.0645 3.5525341,-2.08852 0.3105737,-0.024 2.0441918,0.66669 3.8524831,1.53491 l 3.287834,1.57858 0.299425,3.87199 0.299424,3.87198 -2.002756,1.36511 c -1.101524,0.75083 -2.57115,1.76362 -3.2658618,2.25068 l -1.2630902,0.88556 z m 16.3262698,-1.21659 -3.570233,-1.71628 -0.302968,-3.9178 -0.302968,-3.91781 2.987853,-2.04485 c 1.643325,-1.12466 3.178325,-2.05958 3.411105,-2.07758 0.23278,-0.018 1.965817,0.66497 3.851171,1.51773 l 3.427918,1.55047 0.300739,3.88897 0.300738,3.88898 -2.426425,1.6261 c -1.334545,0.89436 -2.804493,1.91686 -3.266561,2.27221 -0.741854,0.57056 -1.257725,0.44538 -4.410369,-1.07014 z m 16.257747,-1.29484 -3.502892,-1.68391 -0.304755,-3.94091 -0.304756,-3.94092 3.217107,-2.21258 3.217106,-2.21257 2.819218,1.34988 c 4.492742,2.15118 4.428159,2.06684 4.747813,6.20042 l 0.281092,3.63492 -3.333523,2.24478 -3.33352,2.24479 z m 32.613859,-2.42899 -3.231679,-1.61233 -0.43736,-4.00915 -0.437193,-4.00918 2.881325,-2.02773 c 1.584717,-1.11525 3.156029,-2.04897 3.4918,-2.07494 0.335787,-0.026 2.024365,0.65132 3.752406,1.50508 l 3.141883,1.55229 0.301378,3.89724 c 0.337868,4.36911 0.508688,4.04449 -3.482879,6.61878 l -2.748019,1.77226 z m -146.717866,11.18178 -2.997043,-1.44796 -0.320455,-4.14394 -0.320454,-4.14393 2.738795,-1.89153 c 1.506346,-1.04036 3.036628,-1.91458 3.400631,-1.94273 0.364004,-0.0281 2.010453,0.59984 3.658764,1.39551 l 2.996961,1.44668 0.438004,4.01967 0.438005,4.01966 -2.881326,2.02773 c -1.584717,1.11525 -3.167885,2.04598 -3.518147,2.06829 -0.350265,0.0221 -1.985502,-0.61105 -3.633869,-1.40744 z m 32.309839,-2.62135 -3.337104,-1.54061 -0.301389,-3.89739 -0.30139,-3.8974 3.14879,-2.05905 c 1.73185,-1.13249 3.371698,-2.07629 3.644134,-2.09736 0.272419,-0.0211 1.932255,0.65833 3.68852,1.50979 l 3.193192,1.54807 0.304069,3.93204 0.304069,3.93205 -2.917223,2.02059 c -1.604481,1.11133 -3.180788,2.0362 -3.502901,2.05525 -0.322049,0.0199 -2.087353,-0.65864 -3.922767,-1.50598 z m 16.32509,-1.26243 -3.337087,-1.54062 -0.302083,-3.90636 -0.302084,-3.90637 3.114281,-2.04736 c 1.712855,-1.12604 3.352948,-2.06581 3.644644,-2.08837 0.291713,-0.0226 1.968464,0.66948 3.726107,1.53788 l 3.195742,1.57889 0.299302,3.87039 0.299301,3.8704 -2.915005,2.05144 c -1.603236,1.12829 -3.178471,2.06702 -3.500501,2.08606 -0.321966,0.0199 -2.087203,-0.65864 -3.922617,-1.50598 z m 81.405263,-6.29014 -3.114994,-1.53823 -0.303928,-3.93022 -0.303928,-3.93022 2.917223,-2.0206 c 1.604479,-1.11134 3.148151,-2.03847 3.430375,-2.0603 0.99037,-0.0766 6.494657,2.72977 6.847411,3.49114 0.196127,0.42327 0.376639,2.32085 0.401244,4.21682 l 0.04465,3.44724 -2.738983,1.8891 c -1.506451,1.039 -3.03713,1.90808 -3.401516,1.93128 -0.36439,0.0232 -2.064273,-0.65 -3.777508,-1.49602 z m -155.506853,-2.02737 -3.57378,-1.73129 -0.29565,-3.82314 -0.29565,-3.82314 3.11297,-2.10447 c 1.71215,-1.15745 3.30907,-2.11963 3.548706,-2.13816 0.239651,-0.0185 1.915252,0.67666 3.723544,1.54488 l 3.287818,1.57859 0.301162,3.89444 0.301161,3.89444 -3.055939,2.09504 c -1.680783,1.15226 -3.151488,2.15107 -3.268269,2.21956 -0.116837,0.0684 -1.820483,-0.65455 -3.786073,-1.60675 z m 16.326975,-1.23831 -3.572502,-1.71461 -0.301626,-3.90046 -0.301627,-3.90046 3.259555,-2.14286 3.259556,-2.14284 3.461923,1.53051 3.461924,1.53053 0.433261,3.96265 0.433261,3.96267 -3.068578,2.13703 c -1.687702,1.17536 -3.163983,2.1945 -3.280612,2.26473 -0.11669,0.0703 -1.819677,-0.64385 -3.784552,-1.58689 z m 16.28759,-1.25753 -3.569016,-1.74762 -0.181498,-3.98706 -0.181499,-3.98705 3.203421,-2.05612 3.203423,-2.0561 3.535965,1.67557 3.53598,1.67555 0.297106,3.842 0.297106,3.842 -3.053527,2.12644 c -1.679428,1.16955 -3.158165,2.19251 -3.286043,2.27324 -0.127966,0.0807 -1.838594,-0.63964 -3.801552,-1.60084 z m 16.35476,-1.22131 -3.560876,-1.71178 -0.302028,-3.90564 -0.302029,-3.90567 2.915006,-2.05144 c 1.603237,-1.12828 3.167614,-2.07096 3.476387,-2.09484 0.308772,-0.0239 2.075511,0.67406 3.926096,1.55098 l 3.364697,1.59438 0.297753,3.85036 0.297752,3.85036 -2.002771,1.36513 c -1.101511,0.7508 -2.57568,1.7712 -3.275933,2.26752 l -1.273196,0.90241 z m 16.24781,-1.27321 -3.48295,-1.69288 -0.303296,-3.92204 -0.303295,-3.92204 2.987851,-2.04486 c 1.643325,-1.12467 3.192784,-2.06069 3.443223,-2.08006 0.250457,-0.0194 1.985145,0.68517 3.854875,1.56563 l 3.399505,1.60086 0.296652,3.83613 0.296653,3.83614 -3.353134,2.25799 -3.353134,2.25799 z m 16.453913,-1.17107 -3.374354,-1.58388 -0.43882,-4.03022 -0.438989,-4.03022 2.996934,-2.07579 c 3.445223,-2.38632 3.691565,-2.39231 7.811487,-0.18946 2.061115,1.10204 2.832652,1.75573 2.767453,2.34482 -0.04964,0.44921 -0.0024,2.20813 0.105181,3.90866 l 0.195647,3.09186 -3.125067,2.07406 -3.125066,2.07406 z m 32.392685,-2.50196 -3.3423879,-1.56424 -0.2086584,-4.17774 -0.2086599,-4.17776 2.7388882,-1.89033 c 1.506397,-1.03969 3.001768,-1.91458 3.323064,-1.94419 0.321294,-0.0299 2.02112,0.64276 3.777384,1.4942 l 3.193192,1.54807 0.301397,3.89749 c 0.337967,4.37038 0.507538,4.04848 -3.483345,6.61274 l -2.748503,1.76601 z m 16.670599,-1.14404 c -4.256533,-2.04979 -4.141651,-1.90007 -4.442434,-5.78962 -0.210902,-2.72726 -0.116492,-3.59764 0.453321,-4.18239 0.961405,-0.98653 5.307744,-3.85998 5.908797,-3.90646 0.262397,-0.0203 1.947112,0.66564 3.743809,1.52428 l 3.266728,1.56119 0.302624,3.91335 0.302625,3.91337 -3.055957,2.09503 c -1.680782,1.15226 -3.152005,2.14438 -3.269401,2.20469 -0.11747,0.0602 -1.561954,-0.53974 -3.210112,-1.33344 z m 15.752155,-1.49666 -3.572487,-1.71461 -0.297932,-3.85269 -0.297933,-3.85269 3.079555,-2.09271 c 1.693762,-1.15101 3.299842,-2.10977 3.569042,-2.13059 0.269217,-0.0208 1.959503,0.66468 3.756199,1.52332 l 3.266711,1.56119 0.302624,3.91336 0.302625,3.91336 -3.055956,2.09504 c -1.680766,1.15225 -3.151358,2.15276 -3.26796,2.22333 -0.116667,0.0706 -1.819632,-0.64327 -3.784488,-1.58631 z m 16.325088,-1.26244 -3.572485,-1.71461 -0.301627,-3.90046 -0.301627,-3.90047 3.114281,-2.04735 c 1.712856,-1.12603 3.320598,-2.0633 3.572739,-2.0828 0.25214,-0.0195 1.928469,0.66708 3.725166,1.52572 l 3.26671,1.56119 0.300241,3.88254 0.300242,3.88255 -3.053527,2.12644 c -1.679429,1.16955 -3.148949,2.18391 -3.265578,2.25414 -0.116698,0.0702 -1.819661,-0.64385 -3.784535,-1.58689 z m -195.431235,15.06607 -3.07219,-1.40486 -0.40325,-3.35983 c -0.22174,-1.84793 -0.36394,-3.68419 -0.31563,-4.08064 0.0871,-0.71603 5.39666,-4.68347 6.36841,-4.75862 0.27933,-0.0216 1.9448,0.65735 3.70106,1.50879 l 3.19319,1.54807 0.30405,3.93181 0.30405,3.9318 -2.86588,2.01688 c -1.57624,1.10927 -3.15294,2.02915 -3.50375,2.04417 -0.35079,0.0154 -2.02034,-0.6049 -3.71005,-1.37757 z m 130.2367986,-10.08138 -2.9969605,-1.44669 -0.4380048,-4.01966 -0.4380041,-4.01966 2.8813262,-2.02772 c 1.584718,-1.11524 3.132949,-2.04718 3.4404868,-2.07096 0.3075558,-0.0238 2.00372371,0.65707 3.7692763,1.513 l 3.2100992,1.55629 0.1852273,4.0396 0.1850606,4.03963 -2.7388951,1.89024 c -1.50638407,1.03964 -3.03671177,1.91327 -3.400715,1.94142 -0.3640042,0.0282 -2.010452,-0.59982 -3.6587803,-1.3955 z m -123.0175386,-4.57944 -3.55862,-1.72965 -0.18188,-3.99852 -0.18189,-3.99854 3.20677,-2.07666 3.20676,-2.07668 3.53086,1.67313 3.53085,1.67312 0.29775,3.85035 0.29775,3.85035 -2.00276,1.36513 c -1.10151,0.7508 -2.58422,1.77742 -3.29489,2.28137 l -1.29213,0.91626 z m 16.35206,-1.24938 -3.55154,-1.72619 -0.3033,-3.92212 -0.3033,-3.92204 2.98788,-2.04485 c 1.64332,-1.12468 3.19442,-2.06083 3.4469,-2.08035 0.56812,-0.0439 5.33667,2.14682 6.4585,2.96715 0.66055,0.48302 0.87895,1.3216 1.10478,4.2419 l 0.28147,3.63984 -2.42643,1.6261 c -1.33452,0.89437 -2.81276,1.92325 -3.28492,2.28641 -0.76627,0.58936 -1.24001,0.47486 -4.41004,-1.0659 z m 16.242406,-1.17941 -3.232254,-1.61978 -0.435691,-3.99407 -0.435691,-3.99409 2.930039,-2.06204 c 1.611511,-1.13409 3.158502,-2.07967 3.437743,-2.10126 0.279239,-0.0216 1.944643,0.65736 3.700907,1.50879 l 3.193194,1.54809 0.310813,4.06206 0.310814,4.06207 -3.056755,2.01181 c -1.681218,1.10648 -3.154585,2.05375 -3.27414,2.10502 -0.119497,0.0514 -1.671906,-0.63567 -3.449655,-1.52655 z m 16.32509,-1.26244 -3.232254,-1.61977 -0.438569,-4.02479 -0.438568,-4.02478 2.932668,-2.0313 c 1.612967,-1.11722 3.161212,-2.04897 3.440534,-2.07057 0.279324,-0.0216 1.944795,0.65735 3.701059,1.50878 l 3.193193,1.54809 0.310814,4.06206 0.310814,4.06207 -3.056756,2.0118 c -1.681219,1.10649 -3.154585,2.05376 -3.27414,2.10503 -0.119496,0.0514 -1.671905,-0.63568 -3.449655,-1.52655 z m 16.215697,-1.24224 -3.340331,-1.58235 -0.281674,-3.64244 c -0.154923,-2.00337 -0.336882,-3.78802 -0.404486,-3.96587 -0.151439,-0.39856 5.515418,-4.50614 6.323791,-4.58377 0.321123,-0.0319 2.028546,0.64421 3.7941,1.50016 l 3.2101,1.55628 0.184095,4.02714 0.184097,4.02717 -3.088676,2.16044 c -1.698767,1.18825 -3.12291,2.14361 -3.164747,2.12302 -0.04185,-0.0206 -1.579228,-0.74947 -3.416417,-1.61977 z m 16.091331,-1.41547 -3.574509,-1.74077 -0.28623,-3.70136 -0.286244,-3.70154 2.621501,-1.97352 c 1.441812,-1.08544 3.021692,-2.11336 3.510824,-2.28427 0.573972,-0.200571 2.064823,0.25101 4.204162,1.27341 l 3.314821,1.58415 0.299952,3.87881 c 0.336066,4.34581 0.509233,4.01683 -3.483013,6.61704 l -2.746743,1.78899 z m 16.326271,-1.24738 -3.572485,-1.71462 -0.297228,-3.84357 -0.297229,-3.84359 3.112968,-2.10447 c 1.712138,-1.157441 3.309046,-2.119618 3.548696,-2.13815 0.239651,-0.01853 1.915235,0.676648 3.723543,1.54488 l 3.287818,1.57858 0.301162,3.89444 0.30116,3.89444 -3.055955,2.09503 c -1.680782,1.15227 -3.151358,2.15276 -3.26796,2.22333 -0.116668,0.0706 -1.819634,-0.64327 -3.78449,-1.5863 z m 16.304163,-1.24909 -3.552452,-1.73952 -0.297481,-3.84684 -0.297481,-3.84686 3.231635,-2.196066 3.231651,-2.196087 3.487912,1.558976 3.4879106,1.558957 0.4343609,3.97037 0.4343598,3.97037 -3.0714013,2.10573 c -1.6892685,1.15814 -3.1760198,2.17204 -3.303872,2.2531 -0.127942,0.081 -1.831103,-0.6354 -3.784958,-1.59214 z m 16.3125678,-1.24171 -3.5691513,-1.71575 -0.1815641,-3.99441 -0.1815651,-3.99441 3.2067631,-2.076678 3.2067636,-2.076681 3.5308607,1.673123 3.5308453,1.67314 0.299489,3.872806 0.299488,3.87281 -3.0559549,2.09504 c -1.6807654,1.15227 -3.1596207,2.16067 -3.2863472,2.2409 -0.1266612,0.0802 -1.8365164,-0.62622 -3.7995603,-1.56989 z m 16.3430382,-1.25379 -3.587082,-1.72439 -0.181564,-3.99441 -0.181565,-3.99441 3.189605,-2.06557 3.189623,-2.065557 3.548706,1.671122 3.548705,1.671096 0.297375,3.845469 0.297373,3.84546 -1.792513,1.21403 c -0.985874,0.66773 -2.456027,1.68822 -3.267005,2.26779 l -1.474494,1.05374 z m 16.454636,-1.1448 -3.444631,-1.61691 -0.437231,-4.01182 -0.437229,-4.011797 3.003084,-2.055278 c 1.65169,-1.130398 3.20965,-2.071238 3.462141,-2.090764 0.568118,-0.04393 5.336643,2.146827 6.458492,2.967153 0.660554,0.483029 0.87895,1.321596 1.10478,4.241896 l 0.281473,3.63984 -2.426425,1.6261 c -1.334545,0.89437 -2.807436,1.91916 -3.273114,2.27731 -0.748727,0.57583 -1.245255,0.46409 -4.29134,-0.96573 z m 15.99188,-1.38731 -3.352163,-1.73535 -0.300698,-3.88844 -0.300698,-3.888455 2.915005,-2.051446 c 1.603237,-1.128286 3.143451,-2.069098 3.42269,-2.090692 0.971644,-0.07514 6.828056,3.028913 7.024155,3.72298 0.108565,0.384323 0.251682,2.224135 0.317874,4.088503 l 0.120543,3.38972 -3.02994,2.0017 c -1.666467,1.10093 -3.127778,2.04335 -3.247377,2.09425 -0.119536,0.0509 -1.725902,-0.68832 -3.569597,-1.64276 z m -188.15181,0.50063 -3.33701,-1.60378 -0.31909,-4.06142 -0.31909,-4.061433 2.91723,-2.020596 c 1.60446,-1.111323 3.11332,-2.035769 3.353,-2.054304 0.23969,-0.01853 1.90581,0.668841 3.7025,1.527491 l 3.26673,1.561169 0.30569,4.043679 0.30568,4.043664 -3.05488,2.01169 c -1.68018,1.1064 -3.15115,2.05797 -3.26884,2.11461 -0.11775,0.0565 -1.71562,-0.61875 -3.55096,-1.50084 z m 16.087,-1.40708 -3.57322,-1.72398 -0.28782,-3.721982 -0.28783,-3.721967 2.62149,-1.973534 c 1.44183,-1.085447 3.02171,-2.113367 3.51084,-2.284278 0.57395,-0.20057 2.06483,0.251007 4.20414,1.273417 l 3.31483,1.58415 0.29995,3.878819 c 0.33602,4.345225 0.50993,4.014635 -3.48273,6.620685 l -2.74644,1.79266 z m 16.30048,-1.26001 -3.54951,-1.73809 -0.29678,-3.837738 -0.29677,-3.837742 3.24959,-2.196846 3.2496,-2.196836 3.469265,1.550622 3.469249,1.550624 0.433041,3.957643 0.43304,3.957633 -2.434654,1.72794 c -4.318991,3.06529 -3.786351,2.99202 -7.726221,1.0628 z m 16.329687,-1.23341 -3.549392,-1.70624 -0.299129,-3.868166 -0.299129,-3.868151 3.112985,-2.104478 c 1.712136,-1.157463 3.259848,-2.115836 3.439382,-2.129719 0.179517,-0.01388 1.856189,0.695145 3.725922,1.575618 l 3.399505,1.60086 0.297821,3.851242 0.297819,3.851232 -2.419413,1.716982 c -4.293133,3.0467 -3.769637,2.97328 -7.706371,1.08082 z m 16.30931,-1.24306 -3.532942,-1.717168 -0.30016,-3.881501 -0.300161,-3.881502 3.079569,-2.092737 c 1.693748,-1.150985 3.241794,-2.105271 3.440088,-2.120606 0.198278,-0.01533 1.890291,0.692499 3.760023,1.572981 l 3.399504,1.600841 0.298786,3.863725 0.298786,3.863724 -3.055957,2.095023 c -1.680765,1.15227 -3.168148,2.16688 -3.305259,2.25471 -0.137151,0.0877 -1.839153,-0.61303 -3.782277,-1.55749 z m 16.316699,-1.2668 -3.558616,-1.729638 -0.181883,-3.998539 -0.181883,-3.998529 3.197897,-2.070935 3.197912,-2.070947 3.536754,1.699432 3.536737,1.699433 0.300292,3.818344 0.300292,3.818353 -2.002755,1.365118 c -1.101526,0.750813 -2.584224,1.777438 -3.294892,2.281368 l -1.292139,0.91625 z m 16.388229,-1.15274 -3.555364,-1.581716 -0.31934,-4.042623 -0.31934,-4.042612 3.031859,-2.074966 c 1.956701,-1.339139 3.360417,-2.014557 3.958383,-1.904634 0.509588,0.09363 2.228725,0.866503 3.82029,1.717354 l 2.893733,1.547036 0.287628,3.719446 0.28763,3.719465 -2.426424,1.62611 c -1.334546,0.894356 -2.803759,1.912465 -3.264933,2.262473 -0.732739,0.556087 -1.286968,0.436867 -4.393874,-0.945352 z m 16.204698,-1.295753 -3.233083,-1.63049 -0.435633,-3.991163 -0.435634,-3.991173 3.003085,-2.055258 c 1.651689,-1.130402 3.234252,-2.067649 3.516777,-2.082766 0.7311,-0.03909 6.893566,3.174058 6.847654,3.570427 -0.02106,0.181133 0.08639,1.967506 0.238711,3.969732 l 0.276504,3.640438 -3.145212,2.129618 c -1.729872,1.171301 -3.202614,2.11646 -3.272756,2.100371 -0.07019,-0.01604 -1.582436,-0.76296 -3.360641,-1.659719 z m 16.2132648,-1.229015 -3.3436188,-1.580389 -0.206102,-4.144667 -0.206102,-4.144677 2.8841957,-1.943539 c 1.586303,-1.068937 3.0804549,-1.958716 3.3203557,-1.977268 0.2398838,-0.01855 1.8742276,0.67677 3.6318868,1.545168 l 3.1957263,1.578887 0.3017102,4.031759 0.3017202,4.031758 -2.98348017,2.006161 c -1.64091173,1.10337 -3.11145603,2.044618 -3.26787583,2.091658 -0.1564059,0.047 -1.7890144,-0.625674 -3.6280153,-1.494882 z M 9.5370423,95.232305 6.2095599,93.629335 5.8804511,89.568692 5.5513408,85.508029 8.468564,83.487434 c 1.604479,-1.111345 3.113332,-2.03577 3.353015,-2.054305 0.239685,-0.01853 1.905806,0.668821 3.702505,1.52749 l 3.26671,1.561171 0.30937,4.043394 0.309369,4.043383 -3.056755,2.011807 c -1.6812,1.106506 -3.154275,2.057538 -3.273488,2.113446 -0.119151,0.05585 -1.714104,-0.619722 -3.5442188,-1.501363 z M 25.616298,93.82817 22.044639,92.104939 21.795213,88.3524 21.545785,84.59985 24.127317,82.656146 c 1.419829,-1.069052 2.981724,-2.083535 3.470838,-2.254465 0.573972,-0.200561 2.064823,0.251017 4.204162,1.273416 l 3.314822,1.58417 0.299952,3.878799 c 0.336021,4.345237 0.50992,4.014645 -3.48273,6.62071 l -2.746444,1.792635 z m 16.325403,-1.239091 -3.575977,-1.759757 -0.296778,-3.837762 -0.296777,-3.837742 3.249593,-2.196836 3.249594,-2.196826 3.469346,1.55189 3.469364,1.551888 0.315649,4.081784 0.31565,4.081803 -3.088575,2.161757 c -1.698712,1.188972 -3.121543,2.161263 -3.161834,2.160658 -0.04025,1.04e-4 -1.682477,-0.792986 -3.649255,-1.760857 z m -155.620141,-2.057526 -3.23253,-1.623051 -0.31876,-4.122022 -0.31876,-4.122038 3.19189,-2.050002 3.19187,-2.050001 3.43983,1.711749 3.43982,1.711751 0.4213,3.799345 0.42131,3.799341 -3.36841,2.306252 c -1.85263,1.268445 -3.42843,2.29624 -3.50178,2.283999 -0.0734,-0.01228 -1.588,-0.752645 -3.36588,-1.645315 z m 16.223555,-1.24957 -3.331815,-1.581301 -0.31957,-4.023572 -0.31957,-4.023569 3.006032,-2.065289 c 1.65331,-1.135905 3.193222,-2.079766 3.422015,-2.097459 0.228795,-0.01769 1.854067,0.678331 3.611726,1.546721 l 3.195743,1.578889 0.30171,4.03176 0.30171,4.031764 -2.983498,2.006132 c -1.64091,1.103401 -3.111454,2.044643 -3.267874,2.091683 -0.156406,0.047 -1.783695,-0.62608 -3.616191,-1.495791 z m 16.332712,-1.241763 -3.327483,-1.602979 -0.327665,-4.041964 -0.327665,-4.041982 2.987869,-2.044846 c 1.643324,-1.12468 3.151526,-2.057517 3.351555,-2.072985 0.200045,-0.01547 1.833732,0.674401 3.63043,1.533061 l 3.26671,1.561172 0.30266,4.043916 0.302649,4.043898 -2.983481,2.006141 c -1.640911,1.10339 -3.110718,2.054174 -3.266234,2.112889 -0.155503,0.05866 -1.780107,-0.614612 -3.610222,-1.496253 z m 32.750489,-2.475961 c -1.776941,-0.880417 -3.397354,-1.802567 -3.600942,-2.049194 -0.203573,-0.246649 -0.442018,-2.03868 -0.529882,-3.982313 l -0.159707,-3.533868 3.106601,-2.234331 3.1066,-2.234316 3.498078,1.546602 3.498077,1.546601 0.435058,4.13341 0.435058,4.133413 -3.066778,2.012572 c -1.686738,1.106924 -3.162299,2.068755 -3.279051,2.137411 -0.116821,0.06861 -1.666135,-0.595553 -3.443078,-1.47599 z m 32.282485,-2.684609 -3.549376,-1.706249 -0.299129,-3.868161 -0.299129,-3.868163 3.112969,-2.10446 c 1.712136,-1.157464 3.275208,-2.117023 3.473486,-2.132356 0.198294,-0.01533 1.874649,0.68959 3.7252163,1.566514 l 3.3646998,1.594393 0.2985243,3.86034 0.2985231,3.860327 -2.4193965,1.716988 c -4.293149,3.046705 -3.769653,2.973295 -7.706388,1.080827 z m 49.090188,-3.67642 -3.426197,-1.608254 -0.435441,-3.99302 -0.435609,-3.993021 3.021007,-2.075573 c 1.661561,-1.141576 3.243308,-2.087867 3.514989,-2.102854 0.271735,-0.01429 1.948909,0.707081 3.727175,1.604627 l 3.233194,1.631924 0.419984,3.784465 0.419985,3.784471 -3.069069,2.1374 c -1.688007,1.175557 -3.175918,2.20503 -3.306481,2.287733 -0.130493,0.08271 -1.779198,-0.573349 -3.663604,-1.457893 z M 49.0375,77.97655 45.709918,76.372093 45.382253,72.33011 45.054588,68.288143 48.042457,66.243282 c 1.643308,-1.124663 3.142789,-2.056825 3.33216,-2.07147 0.8329,-0.06441 6.593069,2.891242 6.894424,3.537658 0.183618,0.393836 0.390898,2.277019 0.460677,4.184842 l 0.126824,3.468772 -3.119942,2.123842 c -1.71596,1.168109 -3.176825,2.117158 -3.246369,2.109016 -0.06957,-0.0081 -1.623849,-0.736844 -3.454026,-1.619292 z m -123.005268,-4.696259 -3.441793,-1.615574 -0.432762,-3.96271 -0.432762,-3.962709 3.127571,-2.114347 c 1.720172,-1.162884 3.280457,-2.126169 3.467278,-2.140616 0.186837,-0.01445 1.861842,0.704906 3.722259,1.598548 l 3.382552,1.624819 0.299357,3.806259 c 0.336465,4.264067 0.510785,3.935152 -3.493377,6.568704 l -2.75693,1.81323 z m 16.006068,-1.260916 -3.338126,-1.575511 -0.20982,-4.127678 -0.209988,-4.12768 3.195254,-2.069304 3.195271,-2.069321 3.434743,1.709225 3.43476,1.709222 0.423095,3.818196 0.423097,3.818196 -2.938274,2.035172 c -1.616057,1.119351 -3.193324,2.12963 -3.505064,2.245081 -0.311733,0.115539 -2.068941,-0.499073 -3.904916,-1.3656 z m 32.653363,-2.496935 -3.339287,-1.603554 -0.212768,-4.1506 -0.212766,-4.150599 3.172835,-2.018636 3.172817,-2.018651 3.314479,1.600978 c 3.693333,1.783976 3.714317,1.821256 3.853302,6.845201 l 0.07974,2.883769 -3.118188,2.122663 c -1.715004,1.167466 -3.175087,2.11599 -3.244633,2.107831 -0.06957,-0.008 -1.629117,-0.736425 -3.465715,-1.618388 z m 16.3274907,-1.261118 -3.3371147,-1.605181 -0.317665,-4.04274 -0.317665,-4.042756 3.0548549,-2.10926 3.0548556,-2.10926 3.4454647,1.506852 3.44544748,1.506836 0.43772555,4.133204 0.43772655,4.133203 -3.15695288,2.130526 c -1.7363102,1.171781 -3.2137845,2.124502 -3.2832678,2.117142 -0.069567,-0.008 -1.6280229,-0.735721 -3.4634313,-1.618564 z m 48.7389473,-3.90928 -3.575978,-1.759768 -0.290051,-3.815618 -0.290051,-3.815618 2.616743,-1.755852 c 1.43921,-0.965716 2.941674,-1.953888 3.338794,-2.195905 0.522258,-0.318293 1.693009,0.01721 4.231116,1.212394 l 3.50908,1.652444 0.179871,3.959501 0.179873,3.959518 -3.088677,2.160442 c -1.698766,1.188253 -3.121644,2.159954 -3.161935,2.159361 -0.04027,-1.95e-4 -1.682477,-0.792992 -3.649254,-1.760862 z m 16.32191,-1.24541 -3.568037,-1.715222 -0.292401,-3.846018 -0.292403,-3.846035 3.092533,-2.125544 c 1.700907,-1.169044 3.245402,-2.137366 3.432239,-2.151814 0.186821,-0.01445 1.869463,0.694118 3.739196,1.574591 l 3.399505,1.600861 0.296113,3.829157 c 0.331601,4.28808 0.506055,3.95882 -3.489845,6.586851 l -2.749716,1.808444 z m -155.722445,-2.038565 -3.339286,-1.603554 -0.21099,-4.127603 -0.21099,-4.127587 3.17127,-2.038745 3.171276,-2.038746 3.310421,1.596241 3.31044,1.596257 0.448443,3.963744 0.448443,3.963746 -3.196244,2.22031 c -1.757923,1.221163 -3.278907,2.215616 -3.379969,2.20991 -0.101088,-0.0056 -1.6864,-0.731995 -3.522997,-1.613958 z m 32.655506,-2.508505 -3.336488,-1.619842 -0.317877,-4.023699 -0.317877,-4.0237 3.054043,-2.119765 3.054042,-2.119783 3.446577,1.521445 3.446593,1.521443 0.430445,4.110633 0.430443,4.110615 -2.995254,2.00705 c -1.647382,1.103892 -3.121867,2.062941 -3.276642,2.131242 -0.154756,0.06834 -1.782816,-0.604742 -3.617876,-1.495649 z m 48.84467,-3.798182 -3.441795,-1.615574 -0.423855,-3.949491 -0.423856,-3.949508 3.15732,-2.130537 c 1.73651,-1.171813 3.286792,-2.140566 3.445047,-2.152804 0.158256,-0.01224 1.817533,0.698116 3.687266,1.578591 l 3.3995048,1.60086 0.2961127,3.829157 c 0.3316612,4.288847 0.5071392,3.958082 -3.4970385,6.591652 l -2.756941,1.813297 z"
       id="path1" /></g></svg>
