<?xml version="1.0" encoding="UTF-8" standalone="no"?>
<!-- Created with Inkscape (http://www.inkscape.org/) -->

<svg
   width="217.45483mm"
   height="156.76871mm"
   viewBox="0 0 217.45483 156.76871"
   version="1.1"
   id="svg1"
   xml:space="preserve"
   xmlns="http://www.w3.org/2000/svg"
   xmlns:svg="http://www.w3.org/2000/svg"><defs
     id="defs1" /><g
     id="layer1"
     transform="translate(138.91376,-42.193618)"><path
       style="fill:#000000;stroke-width:1.67258"
       d="m -95.076058,197.11726 -2.987123,-1.76755 0.01505,-4.0573 0.01505,-4.05731 3.326021,-1.84562 3.32602,-1.84562 3.186294,1.82093 c 1.752459,1.00153 3.285861,1.96078 3.407558,2.13167 0.121764,0.1709 0.156888,2.02382 0.07811,4.1176 l -0.143173,3.80689 -3.031831,1.77069 c -1.667509,0.97387 -3.295797,1.75323 -3.61842,1.73192 -0.322624,-0.0214 -1.930807,-0.83416 -3.573713,-1.8063 z m 48.994408,-0.0462 -3.081289,-1.89127 -0.113234,-3.52979 c -0.06222,-1.9414 0.0373,-3.74597 0.221282,-4.01017 0.183951,-0.2642 1.751942,-1.30311 3.484414,-2.30871 l 3.149948,-1.82835 3.362366,1.86618 3.362349,1.86616 0.01505,4.05522 0.01505,4.0552 -3.136634,1.8084 c -1.72513,0.99462 -3.375462,1.80839 -3.667377,1.80839 -0.291932,0 -1.917343,-0.85107 -3.612048,-1.89126 z m 97.927583,0.0508 -2.987123,-1.80452 0.01004,-4.04114 0.01004,-4.04114 3.347212,-1.86732 3.347229,-1.86733 3.276579,1.86733 3.276562,1.86732 0.005,4.07394 0.005,4.07393 -3.064329,1.78968 c -1.685373,0.98431 -3.328296,1.78158 -3.650919,1.77171 -0.322623,-0.01 -1.930807,-0.82997 -3.573713,-1.82246 z m -155.108913,-14.19351 -3.20839,-1.84926 v -3.85371 -3.8537 l 3.20839,-1.86827 c 1.76463,-1.02754 3.415527,-1.87452 3.668705,-1.88215 0.253161,-0.008 1.896084,0.82465 3.650918,1.84954 l 3.190609,1.86342 v 3.92505 3.92505 l -3.136618,1.8084 c -1.725146,0.99461 -3.368069,1.80312 -3.650919,1.79664 -0.282866,-0.007 -1.958065,-0.84391 -3.722695,-1.86101 z m 49.121514,0.0582 -3.208388,-1.79332 v -3.92952 -3.9295 l 3.190625,-1.86342 c 1.754835,-1.02489 3.397758,-1.85718 3.650919,-1.84954 0.253161,0.008 1.904079,0.85461 3.668698,1.88215 l 3.208388,1.86827 v 3.85653 3.85651 l -3.265975,1.8582 c -1.796281,1.02201 -3.439187,1.85342 -3.650918,1.84758 -0.211732,-0.005 -1.82873,-0.8176 -3.593349,-1.80394 z m 32.510405,-0.0396 -3.003129,-1.77673 0.126614,-4.013 0.126614,-4.01301 3.243947,-1.91463 3.243931,-1.91464 3.172829,1.84171 c 1.745067,1.01293 3.272414,1.98744 3.394111,2.16557 0.121764,0.17811 0.156888,2.03695 0.07811,4.13075 l -0.143173,3.80687 -3.031831,1.77069 c -1.667509,0.97387 -3.295797,1.75324 -3.61842,1.73192 -0.32264,-0.0212 -1.937999,-0.8383 -3.589719,-1.8155 z m 16.3898369,0.0452 -2.9871227,-1.77382 0.010035,-4.07211 0.010036,-4.0721 3.3094787,-1.84603 3.309479,-1.846 3.309462,1.846 3.309478,1.84603 0.01004,4.07393 0.01003,4.07394 -3.064329,1.78966 c -1.68538898,0.98431 -3.328295,1.78171 -3.650918,1.77198 -0.322641,-0.01 -1.930807,-0.8159 -3.573713,-1.79148 z m 16.3179831,-0.0825 -3.0429871,-1.86987 0.02024,-3.97097 c 0.01171,-2.18402 0.18564,-4.03021 0.387771,-4.10265 0.202131,-0.0724 1.6619231,-0.8957 3.2439971,-1.82948 l 2.876482,-1.69778 3.423431,1.8176 3.423448,1.81763 0.0067,4.05519 0.0067,4.05522 -3.136618,1.80839 c -1.725146,0.99461 -3.368069,1.80349 -3.650935,1.7975 -0.28285,-0.007 -1.883623,-0.85234 -3.557271,-1.88078 z m 24.799372,-13.93028 -3.391151,-1.95892 v -3.9323 -3.93229 l 3.350808,-1.96148 3.350809,-1.96149 3.176592,1.81535 c 1.747124,0.99845 3.32291,2.02561 3.501725,2.28259 0.178815,0.25695 0.328176,2.06304 0.331906,4.0135 l 0.0067,3.54628 -3.468156,2.02383 -3.468173,2.02384 z m -163.699851,-0.20825 -2.98713,-1.7795 v -3.90929 -3.90928 l 3.19061,-1.86342 c 1.75485,-1.02487 3.39776,-1.85716 3.65094,-1.84953 0.25316,0.008 1.90408,0.8546 3.66868,1.88215 l 3.20839,1.86828 v 3.86565 3.86564 l -3.23176,1.84907 c -1.77745,1.01699 -3.51994,1.82896 -3.87218,1.80439 -0.35225,-0.0246 -1.98465,-0.84543 -3.62755,-1.82416 z m 32.731873,0.0191 -3.002913,-1.81393 0.126447,-4.01932 0.126447,-4.01932 3.242191,-1.83935 3.242191,-1.83933 3.287501,1.82692 3.287501,1.82694 -0.112899,4.18141 -0.112899,4.18139 -2.876482,1.67355 c -1.582074,0.92044 -3.175204,1.66935 -3.540294,1.66425 -0.36509,-0.005 -2.015105,-0.82555 -3.666708,-1.82321 z m 16.389636,0.0406 -2.987123,-1.7738 v -4.07587 -4.07587 l 3.319012,-1.76639 3.319029,-1.7664 3.319013,1.7664 3.319029,1.76639 v 4.07746 4.07744 l -3.012864,1.78991 c -1.657073,0.98445 -3.299995,1.78195 -3.650919,1.77223 -0.35094,-0.01 -1.982272,-0.8159 -3.625177,-1.7915 z m 16.484471,0.0642 -2.876499,-1.71152 -0.221265,-3.25027 c -0.328377,-4.82356 -0.33664,-4.80643 3.307973,-6.84736 l 3.26248,-1.82692 3.242174,1.83933 3.242191,1.83935 0.126948,4.05205 0.126949,4.05206 -3.080553,1.79914 c -1.694304,0.98953 -3.344519,1.79161 -3.667143,1.7824 -0.322623,-0.01 -1.881014,-0.78692 -3.463071,-1.72826 z m 16.771452,0.29335 c -4.016377,-2.30861 -3.937916,-2.18276 -3.937916,-6.31592 v -3.67637 l 3.262864,-1.80115 c 1.794575,-0.99062 3.525492,-1.80113 3.846459,-1.80113 0.320968,0 1.939371,0.80544 3.596443,1.78989 l 3.012864,1.78991 v 3.92482 3.9248 l -3.136635,1.80839 c -1.725146,0.99463 -3.368052,1.80237 -3.650918,1.79501 -0.282867,-0.007 -1.629793,-0.65458 -2.993161,-1.43825 z m 15.629015,-0.42985 -3.223676,-1.858 0.125945,-3.91604 0.125945,-3.91605 3.378908,-1.90522 3.37889,-1.90522 3.369776,1.95312 3.369791,1.9531 v 3.92951 3.9295 l -3.136634,1.80839 c -1.725147,0.99463 -3.368053,1.80312 -3.650919,1.79667 -0.282866,-0.007 -1.96496,-0.84785 -3.737976,-1.86976 z m 16.389134,0.0669 -3.208388,-1.79332 v -3.91077 -3.91077 l 3.208388,-1.86819 c 1.764603,-1.02755 3.416407,-1.87451 3.6706717,-1.88216 0.2542485,-0.008 1.8971711,0.83857 3.6509192,1.88047 l 3.188635,1.89432 v 3.90139 3.9014 l -3.262864,1.80114 c -1.7945757,0.99063 -3.4374983,1.79636 -3.6509191,1.79052 -0.2134378,-0.005 -1.8318398,-0.8176 -3.5964428,-1.80394 z m 16.3738299,0 -3.20838798,-1.79332 v -3.89859 -3.8986 l 3.18863498,-1.89432 c 1.753764,-1.0419 3.39667,-1.88809 3.650936,-1.88047 0.254248,0.008 1.906052,0.85461 3.6706711,1.88216 l 3.208388,1.86828 v 3.91356 3.91358 l -3.26288,1.80114 c -1.7945751,0.99063 -3.4374811,1.79636 -3.6509191,1.79052 -0.213421,-0.005 -1.831823,-0.8176 -3.596443,-1.80394 z m 16.1525651,-0.0303 -2.987106,-1.76753 v -3.89623 -3.89624 l 3.188635,-1.89433 c 1.753748,-1.0419 3.396654,-1.88809 3.650919,-1.88046 0.254248,0.008 1.906052,0.8546 3.670672,1.88215 l 3.208388,1.86829 v 3.85651 3.85653 l -3.265959,1.85818 c -1.796281,1.02201 -3.538772,1.84076 -3.8722,1.81943 -0.333429,-0.0212 -1.950426,-0.83415 -3.593349,-1.8063 z m 49.105316,0.0264 -3.00333,-1.7833 0.126782,-4.02752 0.126781,-4.02752 3.164533,-1.86775 3.16455,-1.86773 3.252227,1.84504 3.252226,1.84505 0.126949,4.05205 0.126781,4.05206 -3.080553,1.79914 c -1.694304,0.98953 -3.344519,1.79118 -3.667143,1.78146 -0.322623,-0.01 -1.938082,-0.82018 -3.589903,-1.80098 z m -187.619112,-14.02731 -3.42966,-1.96531 0.007,-3.59601 c 0.003,-1.9778 0.15304,-3.80625 0.33191,-4.06322 0.17881,-0.25698 1.7554,-1.28461 3.50355,-2.28362 l 3.17841,-1.81642 3.34899,1.99304 3.34898,1.99303 v 3.92199 3.922 l -3.20839,1.85318 c -1.76461,1.01925 -3.30795,1.8877 -3.42965,1.9299 -0.12176,0.0421 -1.76462,-0.80764 -3.65092,-1.88856 z m 49.121509,0.0599 -3.429653,-1.99485 v -3.90486 -3.90485 l 3.208388,-1.86827 c 1.764602,-1.02755 3.407525,-1.86827 3.650918,-1.86827 0.243394,0 1.886316,0.84072 3.650919,1.86827 l 3.208388,1.86827 v 3.90232 3.90232 l -2.544575,1.43419 c -1.39953,0.7888 -2.942867,1.68763 -3.429654,1.99739 -0.774253,0.49268 -1.314529,0.31341 -4.314731,-1.43166 z m -32.968949,-0.23071 -3.20839,-1.85188 v -3.86824 -3.86825 l 3.26287,-1.80113 c 1.79458,-0.99064 3.502246,-1.80115 3.79483,-1.80115 0.292567,0 1.910969,0.81926 3.596442,1.82058 l 3.06448,1.82057 v 3.89414 3.89413 l -3.136618,1.80841 c -1.725146,0.99462 -3.368069,1.80757 -3.650919,1.80655 -0.282866,-10e-4 -1.958065,-0.83518 -3.722695,-1.85373 z m 16.373837,0.041 -3.208388,-1.79333 v -3.89179 -3.8918 l 3.156337,-1.82738 c 1.735968,-1.00505 3.411172,-1.82737 3.722672,-1.82737 0.311501,0 1.97784,0.81377 3.702986,1.80839 l 3.136635,1.80841 v 3.91356 3.91358 l -3.262864,1.80115 c -1.794575,0.99062 -3.437498,1.79636 -3.650935,1.79053 -0.213421,-0.005 -1.831824,-0.81763 -3.596443,-1.80395 z m 32.526412,-0.0259 -2.987123,-1.80453 v -3.88006 -3.88008 l 3.064496,-1.82056 c 1.685456,-1.00133 3.328379,-1.81796 3.650919,-1.81473 0.32254,0.003 2.030208,0.80653 3.794827,1.78515 l 3.208388,1.77933 v 3.88887 3.88888 l -3.231754,1.84907 c -1.777465,1.01699 -3.519956,1.84099 -3.872201,1.83112 -0.352244,-0.01 -1.984646,-0.82997 -3.627552,-1.82246 z m 16.37383,0.0313 -2.987106,-1.7738 v -3.94172 -3.94171 l 3.012847,-1.78991 c 1.657073,-0.98444 3.275475,-1.78991 3.596443,-1.78991 0.320967,0 2.051884,0.81052 3.846459,1.80115 l 3.262864,1.80113 v 3.86379 3.86377 l -3.265958,1.8582 c -1.796281,1.022 -3.538772,1.85022 -3.872201,1.8405 -0.333428,-0.01 -1.950425,-0.8159 -3.593348,-1.79149 z m 16.373847,0 -2.987123,-1.7738 v -3.96799 -3.96798 l 1.438233,-0.87522 c 0.791045,-0.48137 2.289574,-1.3248 3.330068,-1.87428 l 1.891819,-0.99904 2.89881,1.54372 c 1.594335,0.84905 3.126867,1.81854 3.405636,2.15443 0.470194,0.56655 0.50848,7.35235 0.04566,8.10113 -0.322306,0.52151 -5.826926,3.46896 -6.44414,3.45052 -0.325534,-0.01 -1.936092,-0.8159 -3.579015,-1.79149 z m 16.3738299,0.0117 -2.9871227,-1.79226 0.00335,-4.06892 0.00335,-4.06895 3.3180757,-1.76788 3.318076,-1.7679 1.87798702,0.99679 c 1.03288298,0.54825 2.52517298,1.39067 3.31620198,1.87203 l 1.43825,0.87523 v 3.96956 3.96956 l -3.012864,1.78991 c -1.65707298,0.98446 -3.299979,1.78882 -3.650919,1.7875 -0.35094,-0.001 -1.982272,-0.80894 -3.625178,-1.79467 z m 16.4844711,0.1062 -2.8764811,-1.67354 -0.115074,-4.1814 -0.115073,-4.18141 3.0870591,-1.65949 c 1.697884,-0.91275 3.331222,-1.65952 3.629627,-1.65952 0.298405,0 1.898342,0.80546 3.555414,1.78991 l 3.012848,1.78991 v 3.94353 3.94354 l -3.064329,1.78967 c -1.685373,0.98432 -3.328296,1.78577 -3.650919,1.781 -0.322624,-0.005 -1.881014,-0.76174 -3.463072,-1.6822 z m 16.816378,0.3041 c -3.950695,-2.2375 -3.982825,-2.287 -3.982825,-6.13634 0,-3.87148 -0.02643,-3.83238 4.255606,-6.30537 l 2.706748,-1.56322 3.378122,1.95795 3.378138,1.95794 v 3.94823 3.94824 l -3.064329,1.78967 c -1.68539,0.98432 -3.328296,1.78781 -3.650936,1.78551 -0.322623,-0.002 -1.68186,-0.62447 -3.020524,-1.38261 z m 31.973223,-0.42778 -3.208388,-1.79334 v -3.91077 -3.91077 l 3.208388,-1.86827 c 1.764619,-1.02755 3.407525,-1.86827 3.650919,-1.86827 0.243393,0 1.886316,0.84072 3.650918,1.86827 l 3.208388,1.86827 v 3.90632 3.9063 l -3.136617,1.80841 c -1.725147,0.99462 -3.36807,1.80363 -3.650919,1.79779 -0.282866,-0.005 -1.95807,-0.81762 -3.722689,-1.80394 z m -154.59121,-13.85654 -3.283537,-1.84518 -0.126949,-4.04642 -0.126949,-4.04642 3.080554,-1.79914 c 1.694304,-0.98953 3.301534,-1.79914 3.571621,-1.79914 0.270105,0 1.880278,0.74679 3.578162,1.65951 l 3.087059,1.65952 -0.115073,4.18534 -0.115073,4.18532 -3.133223,1.84589 -3.133239,1.84589 z m 32.561887,-0.0199 -3.097764,-1.858 v -4.14577 -4.14577 l 2.876499,-1.67473 c 1.582057,-0.92112 3.140448,-1.67865 3.463071,-1.68342 0.322624,-0.005 1.965546,0.79669 3.650919,1.78101 l 3.064329,1.78966 v 3.90912 c 0,4.38243 0.195357,4.07192 -3.982825,6.33079 l -2.876482,1.55511 z m 48.789601,-0.12427 -3.429653,-2.00658 v -3.87267 -3.87267 l 3.390364,-1.93072 c 1.864707,-1.06189 3.515942,-1.89474 3.6694177,-1.85079 0.1535426,0.044 1.7144755,0.90752 3.4689252,1.91903 l 3.189907,1.83912 v 3.90252 3.90253 l -2.102046,1.20663 c -1.156119,0.66366 -2.6994726,1.55844 -3.429653,1.98841 l -1.3276083,0.78178 z m 16.3738309,0.0242 -3.42965398,-1.98985 v -3.90485 -3.90487 L 2.8739379,129.0795 c 1.725146,-0.99461 3.391485,-1.8084 3.702986,-1.8084 0.311501,0 1.986704,0.82232 3.7226721,1.82737 l 3.156337,1.82738 v 3.88355 3.88354 l -2.102045,1.20663 c -1.156135,0.66367 -2.6994731,1.56013 -3.4296701,1.99218 l -1.327608,0.78554 z m 16.3714711,0.0458 -3.427278,-1.98644 v -3.9295 -3.92951 l 3.136618,-1.80839 c 1.725146,-0.99461 3.32766,-1.8084 3.561135,-1.8084 0.233475,0 1.908695,0.81456 3.722689,1.81014 l 3.298172,1.81015 v 3.90058 3.90059 l -2.544576,1.43418 c -1.399529,0.78881 -2.943937,1.69493 -3.432028,2.0136 -0.783636,0.51166 -1.28832,0.34708 -4.314732,-1.407 z m 16.309186,-0.0375 -3.362634,-1.94897 v -3.95268 -3.95269 l 3.378122,-1.95795 3.378121,-1.95794 2.706749,1.56323 c 4.31351,2.49117 4.255622,2.4021 4.255622,6.54802 v 3.64577 l -3.496674,1.98108 -3.496673,1.98109 z m 32.704055,0.0928 -3.097747,-1.8567 -0.126949,-4.03094 -0.126781,-4.03095 3.029088,-1.79954 c 1.665987,-0.98975 3.304612,-1.79954 3.641385,-1.79954 0.33679,0 1.968122,0.80546 3.625194,1.78991 l 3.012848,1.78991 v 3.90888 c 0,4.38215 0.19534,4.07167 -3.982825,6.33054 l -2.876482,1.55511 z m -147.143256,-0.16358 -2.876482,-1.67473 v -4.15631 -4.1563 l 2.876482,-1.67474 c 1.582074,-0.92112 3.175204,-1.67475 3.540294,-1.67475 0.36509,0 1.95822,0.75306 3.540278,1.67345 l 2.876499,1.67344 0.126781,4.04147 0.126781,4.04147 -3.029088,1.79954 c -1.665987,0.98975 -3.316202,1.79564 -3.667142,1.79088 -0.350924,-0.005 -1.932479,-0.76231 -3.514537,-1.68342 z m 32.415771,-0.12243 -3.208388,-1.79332 v -3.90903 -3.90903 l 3.298172,-1.81015 c 1.81401,-0.99559 3.521745,-1.81015 3.794994,-1.81015 0.273233,0 1.875746,0.80535 3.561135,1.78968 l 3.064329,1.78966 v 3.94378 3.94379 l -3.064329,1.78966 c -1.685389,0.98431 -3.328312,1.78489 -3.650935,1.77905 -0.322624,-0.005 -2.030359,-0.81761 -3.794978,-1.80394 z m 16.37383,0 -3.208371,-1.79332 v -3.91803 -3.91803 l 3.262864,-1.80115 c 1.794575,-0.99063 3.502243,-1.80115 3.79481,-1.80115 0.292584,0 1.910987,0.81926 3.596443,1.82059 l 3.064496,1.82058 v 3.88195 3.88195 l -3.064496,1.82059 c -1.685456,1.00132 -3.328379,1.8158 -3.650919,1.80996 -0.32254,-0.005 -2.030208,-0.81761 -3.794827,-1.80394 z m 81.647919,0.005 -2.987123,-1.77382 v -3.94195 -3.94196 l 3.064329,-1.78966 c 1.685389,-0.98433 3.295948,-1.78968 3.579015,-1.78968 0.993327,0 6.264856,3.22239 6.557858,4.00869 0.162909,0.43713 0.196578,2.34298 0.07493,4.2352 l -0.221265,3.44042 -2.876482,1.6723 c -1.582074,0.91976 -3.175204,1.66824 -3.540294,1.66327 -0.365091,-0.005 -2.008013,-0.80722 -3.650919,-1.78281 z m -154.887643,-14.01105 -3.42966,-2.00167 v -3.83456 -3.83455 l 3.26596,-1.8582 c 1.79629,-1.02199 3.462643,-1.85818 3.702993,-1.85818 0.240366,0 1.85738,0.82231 3.593348,1.82737 l 3.156321,1.82738 v 3.90607 3.90607 l -3.208371,1.85318 c -1.76462,1.01924 -3.307957,1.90169 -3.429671,1.96097 -0.121763,0.0592 -1.7646,-0.79296 -3.65092,-1.89388 z m 16.373849,0.0242 -3.42967,-1.98495 v -3.9121 -3.91211 l 3.415068,-1.88516 3.415069,-1.88515 3.333614,1.79287 3.333614,1.79289 0.126447,3.98426 0.126446,3.98428 -3.22421,1.89408 c -1.7733,1.04174 -3.323763,1.94402 -3.44546,2.00505 -0.121763,0.0611 -1.764619,-0.78223 -3.650935,-1.87396 z m 16.336063,0.002 -3.423649,-2.01759 0.126447,-3.98918 0.126447,-3.98918 3.352414,-1.80301 3.352414,-1.80299 3.396252,1.9432 3.396268,1.94319 v 3.85347 3.85348 l -3.208388,1.88468 c -1.764602,1.03658 -3.317808,1.94248 -3.45153,2.01311 -0.133807,0.0706 -1.783804,-0.77949 -3.666809,-1.88918 z m 16.40024,0.0433 -3.418296,-1.98123 v -3.91731 -3.91733 l 3.064496,-1.82058 c 1.685456,-1.00131 3.317858,-1.82057 3.627553,-1.82057 0.309694,0 2.017362,0.83208 3.794827,1.84907 l 3.231754,1.84905 v 3.86186 3.86185 l -2.102062,1.20665 c -1.156119,0.66364 -2.704574,1.56734 -3.44101,2.0082 l -1.338982,0.80156 z m 16.297611,-0.0167 -3.34206,-1.95638 v -3.93375 -3.93375 l 3.136618,-1.80841 c 1.725146,-0.99462 3.342161,-1.80839 3.593348,-1.80839 0.251205,0 1.926408,0.83619 3.722689,1.85818 l 3.265958,1.8582 v 3.84758 3.8476 l -3.517246,1.99274 -3.517246,1.99274 z m 16.495226,0.10102 -3.242191,-1.83933 -0.126781,-4.05205 -0.126949,-4.05207 3.148059,-1.83855 c 3.618955,-2.11359 3.865025,-2.10056 7.802841,0.41338 1.970012,1.25767 2.688852,1.9689 2.578428,2.55121 -0.08413,0.44405 -0.17261,2.20138 -0.196494,3.90514 l -0.04332,3.09774 -3.275676,1.82694 -3.275676,1.82694 z m 32.489164,0.003 -3.2118341,-1.81729 0.11407,-4.18139 0.11407,-4.18141 2.8764821,-1.67354 c 1.582074,-0.92045 3.140448,-1.67744 3.463071,-1.68219 0.32264,-0.005 1.965546,0.79668 3.650936,1.78099 l 3.064329,1.78966 v 3.90913 c 0,4.38343 0.193885,4.07556 -3.982825,6.32449 l -2.876482,1.54884 z m 16.709182,0.14468 c -4.085822,-2.37187 -3.982825,-2.21374 -3.982825,-6.1149 0,-2.73541 0.161236,-3.59592 0.774437,-4.13499 1.034606,-0.90947 5.589553,-3.43926 6.1924,-3.43926 0.26318,0 1.889995,0.81378 3.615142,1.80839 l 3.136635,1.80841 v 3.92504 3.92505 l -3.208389,1.85318 c -1.764619,1.01924 -3.307956,1.89497 -3.429653,1.94605 -0.121764,0.051 -1.51569,-0.65856 -3.097747,-1.57697 z m 15.820659,-0.2777 -3.429654,-1.98495 v -3.86419 -3.86419 l 3.231738,-1.84905 c 1.777464,-1.01699 3.452684,-1.84907 3.722688,-1.84907 0.270021,0 1.902423,0.81378 3.627569,1.80839 l 3.136618,1.80841 v 3.92504 3.92505 l -3.208388,1.85318 c -1.764603,1.01924 -3.307957,1.90338 -3.429653,1.96475 -0.121764,0.0614 -1.764619,-0.78165 -3.650918,-1.87337 z m 16.373829,0 -3.429653,-1.98495 v -3.91211 -3.91211 l 3.262864,-1.80115 c 1.794575,-0.99061 3.469795,-1.80113 3.722689,-1.80113 0.252893,0 1.871296,0.81378 3.596443,1.80839 l 3.136617,1.80841 v 3.89413 3.89414 l -3.208388,1.88468 c -1.764602,1.03658 -3.307956,1.93462 -3.429653,1.99565 -0.121764,0.061 -1.764603,-0.78223 -3.650919,-1.87395 z m -196.011103,-0.0467 -2.95473,-1.63755 -0.143,-3.38092 c -0.0786,-1.85952 -0.0788,-3.70128 -7e-5,-4.09283 0.142,-0.70718 5.74169,-4.25344 6.71635,-4.25344 0.28016,0 1.88832,0.80534 3.57371,1.78965 l 3.06433,1.78966 v 3.94355 3.94354 l -3.01286,1.78991 c -1.65707,0.98444 -3.3,1.78002 -3.65092,1.76795 -0.35094,-0.0117 -1.96769,-0.75887 -3.5928,-1.65952 z m 130.6264069,-0.01 -2.8764985,-1.67345 -0.1267813,-4.04147 -0.1267814,-4.04146 3.0290882,-1.79953 c 1.665987,-0.98974 3.281463,-1.79954 3.589919,-1.79954 0.308474,0 1.94709802,0.80961 3.641402,1.79912 l 3.080553,1.79915 -0.126781,4.04186 -0.126949,4.04187 -2.876482,1.67345 c -1.58205698,0.9204 -3.175187,1.67344 -3.540277,1.67344 -0.365091,0 -1.958221,-0.75304 -3.540295,-1.67344 z m -122.2982769,-14.05057 -3.41467,-1.99887 0.12695,-4.00064 0.12695,-4.00066 3.35733,-1.82324 3.35733,-1.823256 3.39135,1.940386 3.39134,1.94037 v 3.86185 3.86184 l -2.10205,1.20665 c -1.15612,0.66364 -2.71357,1.57289 -3.46098,2.02054 l -1.35893,0.81391 z m 16.39972,0.0151 -3.40788,-1.99488 v -3.93383 -3.93375 l 3.13664,-1.80839 c 1.72514,-0.994636 3.34381,-1.808406 3.59704,-1.808406 0.56982,0 5.15526,2.551896 6.2105,3.456276 0.62135,0.53251 0.77444,1.38543 0.77444,4.31445 v 3.65071 l -2.54458,1.43418 c -1.39951,0.78881 -2.95267,1.70066 -3.45143,2.02633 -0.80943,0.52853 -1.27293,0.37784 -4.31473,-1.40274 z m 16.284988,0.0764 -3.097747,-1.86416 -0.126447,-4.01578 -0.126447,-4.01579 3.080302,-1.82999 c 1.694154,-1.006466 3.309445,-1.829956 3.589519,-1.829956 0.280073,0 1.888172,0.80534 3.573562,1.789646 l 3.064329,1.78968 -0.0033,4.07393 -0.0033,4.07394 -3.202768,1.77014 c -1.761525,0.97357 -3.303541,1.80442 -3.426693,1.84632 -0.123102,0.042 -1.617918,-0.76269 -3.321688,-1.78798 z m 16.37383,0 -3.097747,-1.86416 -0.126949,-4.04662 -0.126948,-4.04662 3.080553,-1.79914 c 1.694304,-0.989526 3.30978,-1.799136 3.589936,-1.799136 0.280157,0 1.888323,0.80534 3.573713,1.789646 l 3.064329,1.78968 -0.0033,4.07393 -0.0033,4.07394 -3.202769,1.77014 c -1.761525,0.97357 -3.303541,1.80442 -3.426693,1.84632 -0.123101,0.042 -1.617917,-0.76269 -3.321688,-1.78798 z m 16.263206,0.0117 -3.208388,-1.83518 v -3.65332 c 0,-2.00935 -0.04382,-3.80271 -0.09751,-3.98525 -0.120259,-0.40905 5.846427,-4.067476 6.65838,-4.082556 0.322623,-0.007 1.972838,0.7987 3.667142,1.788226 l 3.080554,1.79915 -0.126949,4.02935 -0.126949,4.02937 -3.246054,1.91587 c -1.785326,1.05374 -3.278888,1.89645 -3.319013,1.8727 -0.04014,-0.0238 -1.516743,-0.869 -3.281362,-1.87836 z m 16.152565,-0.1706 -3.429653,-2.01119 v -3.71241 -3.71259 l 2.765857,-1.76552 c 1.521209,-0.97105 3.175639,-1.874096 3.676493,-2.006786 0.587727,-0.15572 2.039323,0.40946 4.093466,1.593766 l 3.182814,1.83501 v 3.89039 c 0,4.35878 0.198016,4.04413 -3.982825,6.3288 l -2.876499,1.57189 z m 16.373847,0.0151 -3.429653,-1.98495 v -3.85505 -3.85506 l 3.265958,-1.8582 c 1.796281,-1.021986 3.46262,-1.858176 3.702986,-1.858176 0.240366,0 1.857364,0.8223 3.593348,1.827366 l 3.156321,1.82738 v 3.90607 3.90606 l -3.208388,1.85318 c -1.764619,1.01925 -3.307957,1.90338 -3.429653,1.96475 -0.121764,0.0614 -1.76462,-0.78165 -3.650919,-1.87337 z m 16.351936,0.0117 -3.407759,-2.00824 v -3.85833 -3.85834 l 3.391334,-1.94037 3.3913518,-1.940386 3.3573311,1.823256 3.357331,1.82324 0.126949,3.99204 0.126948,3.99204 -3.224612,1.86265 c -1.7735338,1.02445 -3.3340318,1.9207 -3.4677544,1.99167 -0.1338062,0.0709 -1.7766615,-0.77469 -3.6509355,-1.87923 z m 16.3597469,0.0197 -3.42624098,-1.98583 0.126949,-3.99652 0.126948,-3.99652 3.35733098,-1.82325 3.357332,-1.823256 3.3913511,1.940376 3.391335,1.94039 v 3.88437 3.88437 l -3.208388,1.85319 c -1.7646031,1.01925 -3.3168051,1.91063 -3.4493401,1.98085 -0.132468,0.0702 -1.782767,-0.76596 -3.66721,-1.85817 z m 16.3910581,0.01 -3.443452,-1.99582 0.126949,-3.99652 0.126948,-3.99652 3.339368,-1.8135 3.339384,-1.813486 3.409298,1.939756 3.409299,1.93973 v 3.85695 3.85694 l -1.88078,1.07221 c -1.034422,0.58973 -2.57888,1.49384 -3.432129,2.00915 l -1.551349,0.93692 z m 16.493921,0.12728 -3.309712,-1.87769 -0.126615,-4.03358 -0.126614,-4.03357 3.152608,-1.81762 c 1.733928,-0.999686 3.35979,-1.817606 3.613035,-1.817606 0.569814,0 5.155235,2.551896 6.210497,3.456276 0.621346,0.53252 0.774437,1.38543 0.774437,4.31445 v 3.65071 l -2.544576,1.43418 c -1.399529,0.78881 -2.947048,1.69699 -3.438953,2.01817 -0.790895,0.51639 -1.27733,0.3667 -4.204107,-1.29372 z m 16.05124,-0.1502 -3.208388,-1.98864 v -3.90005 -3.90006 l 3.064496,-1.82059 c 1.685456,-1.001316 3.293623,-1.820576 3.573696,-1.820576 0.974544,0 6.574199,3.546346 6.716201,4.253466 0.07861,0.39155 0.07945,2.23692 0.0017,4.10084 l -0.141166,3.38893 -3.175254,1.76213 c -1.746388,0.96916 -3.276011,1.79611 -3.399179,1.83764 -0.123102,0.0415 -1.667694,-0.81934 -3.432313,-1.91309 z m -187.630338,-14.007526 -3.20342,-1.85629 -0.005,-4.07393 -0.005,-4.07395 3.06433,-1.78966 c 1.68537,-0.98431 3.26101,-1.78967 3.50141,-1.78967 0.2404,0 1.84857,0.81379 3.57371,1.80841 l 3.13664,1.80839 -0.007,4.05521 -0.007,4.0552 -3.20088,1.77016 c -1.76049,0.97357 -3.30045,1.808896 -3.42215,1.856286 -0.12176,0.0473 -1.66281,-0.749176 -3.42468,-1.770156 z m 16.1476,-0.16257 -3.42966,-1.99435 v -3.73309 -3.73308 l 2.76584,-1.76554 c 1.52123,-0.97105 3.17566,-1.8741 3.67651,-2.00679 0.58771,-0.15572 2.03933,0.40946 4.09345,1.59377 l 3.18282,1.83501 v 3.8904 c 0,4.3582 0.19888,4.042 -3.98283,6.33246 l -2.87648,1.575566 z m 16.34911,5.2e-4 -3.40494,-2.00658 v -3.8492 -3.8492 l 3.4093,-1.93976 3.409305,-1.93975 3.339384,1.81349 3.339368,1.81349 0.126614,3.97925 0.126614,3.97924 -2.560632,1.53508 c -4.54247,2.723166 -4.005773,2.691186 -7.785163,0.46394 z m 16.376173,0.0293 -3.407274,-1.97483 v -3.87971 -3.8797 l 3.265975,-1.8582 c 1.796281,-1.02201 3.413278,-1.8582 3.593348,-1.8582 0.180053,0 1.797067,0.83619 3.593349,1.8582 l 3.265958,1.8582 v 3.86274 3.86273 l -2.544592,1.52533 c -4.515257,2.706626 -3.987659,2.673786 -7.766764,0.48344 z m 16.356603,0.0181 -3.39003,-1.98445 v -3.89309 -3.89309 l 3.231754,-1.84907 c 1.777448,-1.01697 3.394462,-1.84906 3.593348,-1.84906 0.19887,0 1.831272,0.83618 3.627553,1.8582 l 3.265958,1.85818 v 3.87526 3.87526 l -3.208388,1.85317 c -1.764603,1.01925 -3.325786,1.916166 -3.46926,1.993156 -0.143507,0.0769 -1.786413,-0.753006 -3.650935,-1.844466 z m 16.365801,-0.005 -3.414667,-1.99886 0.126949,-4.00066 0.126949,-4.00065 3.348048,-1.81821 3.348065,-1.81822 3.395198,1.96706 3.395182,1.96706 0.005,3.83013 0.005,3.83014 -2.102045,1.20664 c -1.156135,0.66365 -2.713573,1.5729 -3.46098,2.02054 l -1.358936,0.813896 z m 16.428323,0.11424 -3.422829,-1.85113 -0.0067,-4.05521 -0.0067,-4.0552 3.182815,-1.83503 c 2.054126,-1.18429 3.505739,-1.74947 4.093449,-1.59377 0.500853,0.13264 2.155283,1.03576 3.676509,2.00679 l 2.765841,1.76554 v 3.73055 3.73057 l -2.544576,1.43419 c -1.399529,0.7888 -2.942866,1.6906 -3.429653,2.00401 -0.773433,0.497936 -1.31682,0.33634 -4.307907,-1.28131 z m 16.256365,-0.0425 -3.097747,-1.87491 -0.126614,-4.01287 -0.126614,-4.01288 3.152608,-1.8176 c 1.733927,-0.99969 3.384042,-1.81213 3.666891,-1.80542 0.731937,0.0174 6.628324,3.69611 6.551988,4.08776 -0.03496,0.17897 -0.06556,1.96831 -0.06807,3.97632 l -0.005,3.65092 -3.300045,1.88078 c -1.815031,1.03444 -3.356261,1.863236 -3.424954,1.841786 -0.06874,-0.0214 -1.518901,-0.882696 -3.222672,-1.913886 z m 16.2597609,0.0247 -3.211817,-1.83348 0.1140698,-4.14822 0.1140697,-4.14823 3.0254585,-1.71538 c 1.663997,-0.94345 3.222304,-1.71538 3.462921,-1.71538 0.2406,0 1.81646902,0.81926 3.501942,1.82059 l 3.06448,1.82058 -0.01004,4.04302 -0.01003,4.04302 -3.129276,1.77016 c -1.72109798,0.97357 -3.259836,1.798636 -3.419417,1.833476 -0.159564,0.0348 -1.735449,-0.761746 -3.501959,-1.770156 z m 16.3916931,0.0212 -3.1939871,-1.85475 -0.01505,-4.07393 -0.01505,-4.07395 3.0643291,-1.78966 c 1.685389,-0.98433 3.261024,-1.78967 3.501423,-1.78967 0.2404,0 1.848566,0.81377 3.573713,1.80841 l 3.136618,1.80839 -0.0033,4.05521 -0.0033,4.0552 -3.202768,1.77014 c -1.761508,0.97359 -3.303524,1.808216 -3.426693,1.854766 -0.123102,0.0465 -1.66122,-0.750036 -3.417912,-1.770156 z m 16.139653,-0.16023 -3.428165,-1.99348 0.04064,-3.7606 0.04064,-3.76061 2.723709,-1.73888 c 1.498027,-0.9564 3.13349,-1.84744 3.634327,-1.98015 0.587727,-0.15571 2.039323,0.40947 4.093466,1.59377 l 3.182814,1.83503 v 3.89038 c 0,4.35821 0.19887,4.04201 -3.982825,6.33248 l -2.876482,1.575546 z m 16.372342,0.0233 -3.429654,-2.03023 v -3.84922 -3.8492 l 3.409298,-1.93975 3.409298,-1.93974 3.339367,1.81476 3.339385,1.81476 v 4.09397 4.09399 l -3.246055,1.91719 c -1.785326,1.05446 -3.278886,1.914156 -3.319011,1.910446 -0.04014,-0.003 -1.616329,-0.920346 -3.502628,-2.036976 z m -154.998274,-14.04985 -3.09776,-1.86745 v -4.134329 -4.134344 l 3.34044,-1.797803 3.34043,-1.797803 3.29761,1.971868 3.29761,1.971869 0.12711,3.820518 0.12712,3.820514 -3.5362,2.03968 c -1.94491,1.12183 -3.59526,2.02507 -3.66745,2.00721 -0.0722,-0.0179 -1.52524,-0.87284 -3.22901,-1.89993 z m 16.27161,0.005 -3.199975,-1.83348 -0.0084,-4.036234 -0.0084,-4.036231 3.156321,-1.827374 c 1.735968,-1.005052 3.344068,-1.827375 3.573545,-1.827375 0.229478,0 1.796248,0.819262 3.481721,1.820584 l 3.064496,1.820584 -0.01004,4.043021 -0.01004,4.043025 -3.129292,1.77013 c -1.721099,0.9736 -3.259836,1.79866 -3.419417,1.8335 -0.159564,0.0348 -1.730114,-0.76174 -3.4901,-1.77015 z m 16.379835,0.0212 -3.193987,-1.85476 -0.01505,-4.055195 -0.01505,-4.055214 3.136635,-1.808391 c 1.725146,-0.994631 3.300781,-1.808407 3.501407,-1.808407 0.200642,0 1.776277,0.813776 3.501423,1.808407 l 3.136618,1.808391 -0.01003,4.055214 -0.01004,4.055195 -3.129275,1.77014 c -1.721099,0.97359 -3.259837,1.80822 -3.419417,1.85477 -0.159564,0.0465 -1.727421,-0.75003 -3.484113,-1.77015 z m 32.8439,0.0565 c -1.703771,-1.0148 -3.248262,-2.05914 -3.432229,-2.32073 -0.18395,-0.26161 -0.283518,-2.066691 -0.221265,-4.011313 l 0.113233,-3.535662 3.269622,-1.988159 3.269621,-1.988143 3.36842,1.811703 3.36842,1.811702 0.115074,4.154649 0.115073,4.154653 -3.21282,1.77013 c -1.767062,0.97358 -3.312389,1.81878 -3.434086,1.87823 -0.121764,0.0594 -1.615258,-0.72224 -3.319029,-1.73706 z m 32.393375,-0.18761 -3.407257,-1.97483 v -3.87971 -3.879711 l 3.265958,-1.858183 c 1.796281,-1.022012 3.4286834,-1.8582 3.6275528,-1.8582 0.1988862,0 1.8159006,0.832074 3.5933481,1.849068 l 3.231755,1.849068 v 3.871866 3.871852 l -2.544576,1.52534 c -4.5152733,2.70663 -3.9876755,2.6738 -7.7667809,0.48344 z m 49.227516,0.11942 -3.292,-1.86763 -0.12628,-4.014706 -0.126447,-4.014721 3.172043,-1.836473 c 1.744632,-1.01007 3.39463,-1.83159 3.666658,-1.825585 0.272028,0.0067 1.888591,0.855239 3.592362,1.887219 l 3.097747,1.876348 0.126948,3.805581 0.126949,3.805587 -3.224729,1.89441 c -1.773618,1.04191 -3.336474,1.9536 -3.473024,2.02599 -0.136482,0.0724 -1.729696,-0.70882 -3.540294,-1.73602 z m 16.083353,0.0134 -3.193971,-1.85624 -0.01505,-4.055215 -0.01505,-4.055198 3.136635,-1.808407 c 1.725129,-0.994615 3.292017,-1.808391 3.481954,-1.808391 0.835386,0 6.350526,3.390967 6.601145,4.058693 0.152706,0.406821 0.214174,2.30038 0.13665,4.207904 l -0.140999,3.468224 -3.274404,1.87697 c -1.800915,1.03233 -3.330604,1.86592 -3.399313,1.85244 -0.06874,-0.0134 -1.562204,-0.85985 -3.318896,-1.88078 z m -122.277032,-14.166093 -3.306986,-1.87613 -0.125945,-3.98428 -0.125945,-3.98428 3.281279,-1.866914 c 1.804711,-1.026796 3.434621,-1.866914 3.622,-1.866914 0.187395,0 1.801951,0.846357 3.587929,1.880779 l 3.247209,1.88078 0.005,3.818009 c 0.0067,4.277316 0.205861,3.962821 -3.989431,6.279809 l -2.888525,1.595271 z m 16.05564,-0.02308 -3.206716,-1.828194 0.109052,-4.131568 0.108885,-4.131584 3.345288,-1.816787 3.345306,-1.816803 3.292736,1.968958 3.292753,1.968958 0.12745,3.839451 0.127451,3.839452 -3.086441,1.80257 c -1.697549,0.99142 -3.348015,1.877083 -3.667728,1.968155 -0.319713,0.09116 -2.024304,-0.657105 -3.788003,-1.662608 z m 32.74868,0.0281 -3.205712,-1.856243 0.107881,-4.154649 0.107882,-4.154649 3.319029,-1.767998 3.319012,-1.768015 3.181176,1.851761 c 3.544793,2.063425 3.56284,2.102212 3.314061,7.121918 l -0.142838,2.881333 -3.272565,1.875929 c -1.799911,1.031763 -3.32878,1.86489 -3.39749,1.851393 -0.06874,-0.01338 -1.567489,-0.859839 -3.33062,-1.88078 z m 16.3761219,0.0015 -3.2034206,-1.857698 -0.00502,-4.055198 -0.00502,-4.055214 3.2083876,-1.867449 3.208388,-1.86745 3.319029,1.768015 3.319013,1.767998 0.117749,4.154649 0.11775,4.154649 -3.311821,1.88078 c -1.82148698,1.034422 -3.368019,1.870393 -3.436728,1.857698 -0.06874,-0.01338 -1.566452,-0.859053 -3.328329,-1.88078 z m 48.8952751,-0.139828 -3.429654,-2.030241 0.005,-3.826623 0.005,-3.826623 2.744331,-1.548873 c 1.509384,-0.851877 3.083564,-1.721266 3.498162,-1.931944 0.545244,-0.277079 1.686643,0.147688 4.125044,1.535008 l 3.37123,1.918078 -0.125945,3.961583 -0.125945,3.9616 -3.246055,1.915871 c -1.785325,1.05374 -3.278886,1.912843 -3.319011,1.909146 -0.04014,-0.0033 -1.616329,-0.920352 -3.502628,-2.036982 z m 16.369347,0.01673 -3.425171,-1.985215 0.005,-3.857114 0.005,-3.857131 3.247209,-1.88078 c 1.785978,-1.034422 3.400534,-1.88078 3.587929,-1.88078 0.187379,0 1.810381,0.836189 3.606663,1.8582 l 3.265958,1.8582 v 3.840589 c 0,4.300883 0.199321,3.986053 -3.987308,6.298174 l -2.880964,1.591056 z M -94.8521,55.889351 l -3.205712,-1.856243 0.107881,-4.131584 0.107881,-4.131568 3.319013,-1.788169 3.319029,-1.788169 3.177495,1.846726 3.177513,1.846743 0.1415,3.986521 0.1415,3.986522 -3.357917,1.967268 c -1.846843,1.081991 -3.439973,1.956214 -3.540294,1.942733 -0.100355,-0.01338 -1.624943,-0.859839 -3.388073,-1.88078 z m 32.751708,0.01673 -3.201665,-1.872267 -0.0067,-4.03623 -0.0067,-4.036231 3.208388,-1.877986 3.208388,-1.878004 3.319013,1.78265 3.319029,1.78265 0.11223,4.131584 0.11223,4.131567 -3.141084,1.770139 c -1.727589,0.973591 -3.271628,1.816101 -3.431209,1.872266 -0.159564,0.0562 -1.730883,-0.740399 -3.49179,-1.770138 z m 48.992117,-0.02091 -3.306987,-1.87613 -0.118084,-3.970414 -0.118084,-3.970431 3.312188,-1.880763 c 1.821688,-1.034439 3.4420476,-1.88078 3.6007752,-1.88078 0.1587276,0 1.758297,0.836171 3.5545787,1.858183 l 3.265958,1.8582 v 3.840589 c 0,4.301652 0.200458,3.985401 -3.994851,6.302406 l -2.8885411,1.595337 z"
       id="path1" /></g></svg>
