<?xml version="1.0" encoding="UTF-8" standalone="no"?>
<!-- Created with Inkscape (http://www.inkscape.org/) -->

<svg
   width="359.52042mm"
   height="288.36353mm"
   viewBox="0 0 359.52042 288.36353"
   version="1.1"
   id="svg1"
   xml:space="preserve"
   xmlns="http://www.w3.org/2000/svg"
   xmlns:svg="http://www.w3.org/2000/svg"><defs
     id="defs1" /><g
     id="layer1"
     transform="translate(787.45455,534.11034)"><path
       style="fill:#000000;stroke-width:2.18788"
       d="m -743.89048,-252.77503 c -1.08891,-2.34261 -3.3118,-6.91196 -4.93971,-10.15413 -1.62791,-3.24215 -3.10683,-6.48347 -3.28646,-7.2029 -0.29308,-1.17393 0.44369,-2.42082 7.18547,-12.1603 l 7.51207,-10.85226 4.50025,0.36401 c 14.13824,1.14358 20.49144,1.86062 21.16579,2.38887 0.86646,0.67881 10.29767,19.43317 10.88638,21.64823 0.36126,1.35917 -0.0958,2.17772 -6.71669,12.02944 -3.90743,5.814 -7.4358,10.70752 -7.84208,10.87359 -0.40576,0.1665 -3.05611,0.10504 -5.88965,-0.13673 -2.83353,-0.24159 -8.3608,-0.71107 -12.28285,-1.04328 -3.92203,-0.3322 -7.39684,-0.80454 -7.7218,-1.04964 -0.32443,-0.24585 -1.48176,-2.36237 -2.57072,-4.70497 z m 45.42452,-18.97803 c -1.75659,-3.52909 -3.71322,-7.58841 -6.97657,-14.47398 l -2.49522,-5.26484 6.92067,-10.88341 c 7.93181,-12.47349 7.18738,-11.85953 13.62517,-11.23741 2.02024,0.19516 7.31389,0.67397 11.76368,1.06381 6.28874,0.55097 8.28032,0.9544 8.94284,1.81161 1.48144,1.9168 10.16775,20.14494 10.35632,21.73273 0.15994,1.34752 -0.62877,2.68825 -6.98035,11.864 -6.40487,9.25274 -7.30291,10.36211 -8.50644,10.50889 -0.74011,0.0901 -5.20506,-0.21026 -9.9221,-0.66798 -4.71705,-0.45763 -9.64803,-0.88591 -10.95774,-0.95173 -3.80748,-0.19144 -4.25889,-0.46531 -5.77026,-3.50169 z m -43.58656,-33.51379 c -1.72302,-3.66417 -3.95113,-8.36052 -4.95139,-10.43638 -1.02139,-2.1197 -1.67039,-4.37445 -1.48048,-5.14331 0.18596,-0.75295 3.36954,-5.80049 7.07458,-11.21678 6.29544,-9.20305 6.83698,-9.86158 8.26518,-10.06462 0.8408,-0.11916 5.76788,0.21114 10.94905,0.73427 5.18117,0.52317 10.20374,0.9109 11.16129,0.86168 2.06708,-0.10637 3.01347,0.46903 4.02116,2.44456 5.80931,11.38883 9.96699,20.4034 9.85623,21.37005 -0.0788,0.68704 -3.17179,5.58799 -7.19236,11.39629 -7.93818,11.46782 -6.97948,10.72004 -13.00694,10.14522 -1.8162,-0.17327 -6.92465,-0.64871 -11.35215,-1.05666 -4.42749,-0.40796 -8.53632,-1.10861 -9.1307,-1.55699 -0.59436,-0.44841 -2.49046,-3.81318 -4.21347,-7.47733 z m -37.03335,-75.66863 c -0.91186,-2.03895 -2.0305,-4.31734 -2.48599,-5.06318 -0.72824,-1.19252 -2.06776,-4.2058 -5.04147,-11.34095 l -0.8412,-2.01838 7.55788,-10.91849 7.55791,-10.91845 2.04043,0.1037 c 6.6625,0.33849 23.03412,2.08737 23.67165,2.52868 0.4161,0.28804 1.46061,2.09266 2.32123,4.01036 0.86061,1.91769 3.26041,6.98698 5.33273,11.26501 l 3.76818,7.77847 -6.50005,9.57593 c -3.57496,5.26679 -7.04749,10.16573 -7.71781,10.88576 -1.11584,1.20011 -2.26154,1.21777 -13.6802,0.21092 -6.8542,-0.60437 -12.88133,-1.38981 -13.39376,-1.74549 -0.5124,-0.35571 -1.67768,-2.31493 -2.58953,-4.35388 z m 81.79882,54.72858 c -1.73143,-3.64972 -4.0497,-8.44784 -5.15173,-10.66251 -1.27437,-2.56105 -1.86932,-4.57057 -1.63456,-5.52096 0.39803,-1.61146 12.93633,-20.04181 14.23976,-20.93156 0.43379,-0.29608 3.08105,-0.34452 5.88278,-0.1077 2.80175,0.23687 8.29102,0.69684 12.19837,1.02218 3.90737,0.32532 7.43289,0.81895 7.83447,1.09694 1.43122,0.99071 11.18193,21.56079 10.97896,23.16115 -0.14308,1.12763 -2.16293,4.3234 -7.39731,11.70356 l -7.20056,10.15238 -6.86644,-0.52885 c -12.53398,-0.96534 -18.08325,-1.60494 -18.91398,-2.17998 -0.452,-0.31287 -2.23842,-3.55501 -3.96986,-7.20474 z m 43.60142,33.12925 c -0.52918,-1.19337 -2.74143,-5.77811 -4.9161,-10.18829 -2.17463,-4.4102 -4.10432,-8.60215 -4.28819,-9.31546 -0.29801,-1.15618 0.39556,-2.35129 6.39046,-11.01179 3.8789,-5.60364 7.18936,-9.9532 7.82266,-10.27799 1.73993,-0.89244 24.79578,0.97883 26.48737,2.14976 1.45127,1.0046 11.22287,20.89781 11.24854,22.89997 0.004,0.40351 -3.18253,5.35183 -7.08375,10.99629 l -7.09327,10.2626 -5.13637,-0.4621 c -2.82498,-0.25416 -8.60793,-0.71031 -12.85094,-1.01367 -4.24302,-0.30336 -8.14292,-0.84813 -8.66643,-1.2106 -0.52355,-0.36245 -1.38486,-1.63542 -1.91407,-2.82878 z m 37.9546,21.44976 c -2.45549,-5.12321 -4.70336,-10.21922 -4.9952,-11.32443 l -0.53062,-2.00945 7.08622,-10.39619 c 5.19755,-7.62512 7.37285,-10.47625 8.16136,-10.69669 0.59127,-0.16541 5.95047,0.17283 11.90933,0.75137 5.95886,0.57857 11.07952,0.94483 11.3793,0.81391 1.3165,-0.5749 2.9091,1.83944 7.9503,12.05217 3.87698,7.85431 5.23671,11.19546 4.88634,12.0068 -0.26699,0.6183 -3.3955,5.54174 -6.95227,10.94096 -6.2804,9.53371 -6.51936,9.82934 -8.28854,10.25417 -1.00194,0.24059 -6.42094,-0.0133 -12.0422,-0.56225 -5.62126,-0.54981 -10.55841,-0.94633 -10.97141,-0.88112 -1.70694,0.26952 -3.3541,-2.10595 -7.59265,-10.94927 z m -75.25801,-98.25378 c -0.51128,-0.93951 -2.91626,-6.1612 -5.34433,-11.60374 l -4.41471,-9.89554 7.34078,-10.87812 7.34079,-10.87812 1.9612,-0.0175 c 1.07869,-0.009 3.54616,0.21004 5.48333,0.48834 1.93712,0.27816 6.74832,0.71657 10.69153,0.97424 3.94323,0.25766 7.65612,0.80533 8.2509,1.21704 0.59475,0.41169 1.95197,2.73307 3.01603,5.15858 1.06404,2.42552 2.8129,6.2498 3.88631,8.49842 3.78183,7.92226 4.19049,8.92807 4.06588,10.00755 -0.0696,0.60313 -3.37755,5.53773 -7.40943,11.05301 l -7.2837,9.96348 -2.25441,0.1037 c -1.23993,0.0571 -3.98922,-0.14942 -6.10953,-0.45912 -2.12031,-0.30957 -6.99845,-0.81194 -10.84029,-1.11636 -3.84185,-0.30441 -7.08994,-0.63325 -7.218,-0.73069 -0.1285,-0.0969 -0.65118,-0.9459 -1.16248,-1.88542 z m -45.16343,-37.98823 c -2.76028,-5.8017 -5.08077,-10.85947 -5.15665,-11.23955 -0.076,-0.3801 3.00174,-5.43202 6.83923,-11.22644 5.4753,-8.26734 7.23388,-10.61565 8.16775,-10.90917 1.59332,-0.50011 24.49004,1.6054 25.56726,2.35105 0.46612,0.32267 1.94437,2.87315 3.28499,5.66777 1.34065,2.79463 3.50074,7.20667 4.8002,9.80456 3.93984,7.87652 4.22221,6.61383 -4.1997,18.7805 -5.37656,7.76717 -7.46236,10.45559 -8.15961,10.51634 -2.20165,0.19211 -24.68713,-2.15962 -25.37198,-2.65356 -0.4134,-0.29945 -3.0111,-5.28973 -5.77149,-11.0915 z m 84.24728,60.85786 c -1.70906,-3.68432 -3.87199,-8.23046 -4.80656,-10.10254 -0.93455,-1.87209 -1.89034,-4.26717 -2.12401,-5.32243 l -0.42485,-1.91862 6.71247,-9.69712 c 6.54024,-9.44828 6.75742,-9.70322 8.46239,-9.9367 2.63595,-0.36091 24.79805,1.47423 25.74847,2.13212 0.45511,0.31506 2.08095,3.30275 3.61297,6.63935 1.53199,3.33658 3.87174,8.38754 5.19946,11.22431 l 2.41396,5.15781 -7.10488,10.53732 c -5.35377,7.93996 -7.38817,10.62829 -8.25369,10.9066 -1.74105,0.55968 -24.17607,-1.39972 -25.32469,-2.21177 -0.55201,-0.39013 -2.40186,-3.72395 -4.11092,-7.40826 z m 39.86259,24.86296 c -2.83951,-5.98166 -5.01502,-11.33451 -4.86504,-11.97043 0.14921,-0.63268 3.4047,-5.70914 7.23443,-11.28105 l 6.96313,-10.13074 2.57917,0.088 c 6.16397,0.21026 22.79432,1.96714 23.54573,2.48729 0.45311,0.31365 2.07189,3.14491 3.59731,6.29169 1.52537,3.1468 3.82473,7.86414 5.10967,10.48301 1.28489,2.61886 2.24733,5.45536 2.13871,6.30325 -0.28049,2.1895 -13.28061,20.98314 -14.84968,21.46785 -0.61561,0.19013 -6.01647,-0.13143 -12.00185,-0.71467 -5.98543,-0.58318 -11.22037,-1.00715 -11.6332,-0.94214 -1.62896,0.25643 -2.87583,-1.67047 -7.81822,-12.082 z m -116.31314,-125.97086 c -0.37481,-0.57716 -1.9989,-3.97821 -3.609,-7.5578 -1.6101,-3.5796 -3.72524,-8.01106 -4.70027,-9.84764 -1.11375,-2.09789 -1.63785,-3.90011 -1.40962,-4.84792 0.22375,-0.92984 3.11224,-5.20266 7.52725,-11.13559 5.95272,-7.99837 7.37305,-9.65003 8.39728,-9.76543 1.24121,-0.1398 13.59517,1.01014 21.04112,1.95856 l 4.00983,0.51072 1.83369,3.2524 c 3.30866,5.8686 9.17088,18.51473 9.1876,19.81963 0.0133,0.95776 -14.27116,21.59223 -15.19494,21.95126 -0.7721,0.30006 -16.01546,-0.82811 -21.39854,-1.58376 -3.49213,-0.49019 -4.54559,-1.00067 -5.68493,-2.7548 z m 81.91086,55.07943 c -4.34779,-9.06813 -8.12023,-17.45518 -8.42228,-18.72466 -0.31783,-1.33578 0.10344,-2.01423 7.27867,-11.72391 7.32974,-9.91868 7.68205,-10.31476 9.37243,-10.53709 2.62784,-0.34561 22.96926,1.5057 23.94194,2.179 0.66273,0.45878 6.85403,13.01448 10.89829,22.10138 0.61322,1.3778 0.54009,1.50817 -6.76317,12.05875 l -7.38305,10.6659 -1.9374,10e-4 c -4.31664,0.004 -24.17052,-1.78825 -24.76373,-2.23575 -0.35068,-0.26403 -1.35023,-1.96784 -2.2217,-3.78551 z m 37.94003,21.47083 c -2.76985,-5.78793 -5.05684,-11.06561 -5.08222,-11.72817 -0.0337,-0.87761 1.89989,-4.01601 7.12246,-11.56075 l 7.16862,-10.3561 2.34201,-0.0778 c 1.28808,-0.0429 6.48822,0.3399 11.55586,0.85045 5.06762,0.51056 9.55034,0.87699 9.96157,0.81433 1.72091,-0.26222 3.31759,1.98731 7.64413,10.76971 2.51212,5.09932 4.85969,10.03785 5.2168,10.97451 l 0.64927,1.70302 -6.87089,10.50537 c -3.77896,5.77796 -7.19323,10.72531 -7.58664,10.99458 -0.97758,0.66723 -5.36386,0.58326 -12.36513,-0.23673 -3.22361,-0.37754 -7.56532,-0.8016 -9.64825,-0.94236 -2.08292,-0.14068 -4.07598,-0.46523 -4.42908,-0.72106 -0.35346,-0.25533 -2.90822,-5.20072 -5.67804,-10.98862 z m 44.49588,35.90123 c -0.80628,-1.6322 -2.13751,-4.58277 -2.95829,-6.55689 -0.8208,-1.97407 -2.28384,-4.96061 -3.25119,-6.63674 -0.96734,-1.67614 -2.01315,-3.87316 -2.32398,-4.88229 l -0.56514,-1.83478 7.22768,-10.44142 c 8.38215,-12.10921 6.69206,-11.05476 16.45271,-10.26493 10.59046,0.85696 17.49048,1.99836 18.38497,3.04121 0.95992,1.11916 9.9601,19.69044 10.25885,21.16843 0.14638,0.72472 -1.67426,3.80004 -6.68391,11.28959 -3.78692,5.66144 -7.25622,10.61218 -7.70963,11.00157 -1.40716,1.20838 -24.26796,-0.73034 -26.40699,-2.23946 -0.52705,-0.37281 -1.61878,-2.01208 -2.42504,-3.64426 z m 41.82732,28.04383 c -1.08501,-2.33942 -3.56054,-7.55008 -5.50122,-11.57932 -1.94064,-4.02919 -3.51315,-7.69909 -3.4944,-8.15531 0.0197,-0.45624 3.21443,-5.28112 7.10153,-10.72199 8.0856,-11.31753 7.30549,-10.75794 14.04719,-10.07699 14.76573,1.49139 18.49419,1.97714 19.26355,2.5097 1.12555,0.77912 10.9296,21.73391 10.93515,23.37242 0.001,0.40896 -3.15005,5.30493 -7.00319,10.87993 -8.13894,11.77707 -6.89716,10.98033 -15.80121,10.12922 -2.9055,-0.27773 -7.8849,-0.75157 -11.06532,-1.053 -3.18039,-0.30142 -5.94608,-0.66128 -6.14595,-0.79963 -0.19997,-0.13826 -1.25113,-2.16562 -2.33613,-4.50503 z m -166.99721,-117.75997 c -1.51121,-3.41074 -3.62931,-7.90261 -4.70691,-9.98196 -3.24897,-6.2695 -3.60347,-4.96497 4.55018,-16.74407 8.45504,-12.21454 6.44528,-11.19564 19.52426,-9.89826 13.25438,1.31476 14.32912,1.50463 15.24831,2.69354 1.19213,1.54192 10.16733,20.06043 10.44463,21.55042 0.18751,1.00697 -13.54351,21.47052 -14.85951,22.14553 -2.09463,1.07433 -23.97377,-1.09606 -26.07547,-2.58669 -0.83635,-0.59223 -2.45848,-3.41621 -4.12549,-7.17851 z m 44.4412,-21.99302 c -1.73063,-3.93287 -3.67038,-7.97125 -4.3105,-8.97425 -0.64014,-1.00298 -1.4998,-2.85899 -1.91033,-4.12443 l -0.74644,-2.30082 7.59533,-10.69924 7.59531,-10.69918 7.33918,0.58534 c 11.4138,0.91032 17.92606,1.73826 18.87527,2.39977 0.47809,0.33315 3.19331,5.48664 6.03379,11.45219 l 5.16451,10.84644 -7.6348,11.30213 -7.63481,11.30211 -7.26222,-0.46038 c -9.43329,-0.59803 -17.53151,-1.76442 -18.88324,-2.71974 -0.5911,-0.41715 -2.49017,-3.97695 -4.22081,-7.90978 z m 43.7682,33.16644 c -1.28143,-2.88489 -2.54521,-5.5095 -6.86745,-14.26256 l -2.19844,-4.45209 6.61902,-10.40151 c 3.64049,-5.72083 7.09008,-10.81417 7.66584,-11.31849 0.6058,-0.53071 2.23376,-0.81501 3.86433,-0.6749 16.82663,1.44579 21.88889,2.02418 22.71365,2.59509 0.53338,0.36922 2.14712,3.17864 3.58608,6.24312 1.43893,3.0645 3.553,7.42232 4.69794,9.68409 3.67918,7.26806 4.01676,5.89357 -4.45281,18.12903 l -7.33321,10.5939 -1.953,0.0245 c -1.07415,0.0133 -5.27825,-0.32969 -9.34248,-0.76251 -4.06421,-0.43281 -8.83072,-0.84504 -10.59223,-0.91606 -3.91161,-0.15775 -4.7458,-0.74123 -6.40724,-4.48147 z m 82.9725,57.33166 c -0.52776,-1.19546 -1.8696,-4.29152 -2.98183,-6.88014 -1.11227,-2.58864 -2.72748,-5.85299 -3.58939,-7.25413 -0.86192,-1.40116 -1.73319,-3.46067 -1.93618,-4.57668 l -0.3691,-2.0292 6.94885,-10.0386 c 6.76869,-9.77831 6.99562,-10.04694 8.75514,-10.35957 0.99342,-0.17656 7.0567,0.21003 13.47391,0.85922 9.07796,0.91826 11.85479,1.42169 12.51062,2.26815 0.99269,1.28118 5.19861,9.67037 8.39837,16.75154 1.45898,3.22873 2.09985,5.45564 1.80621,6.27618 -0.65205,1.82215 -13.82301,20.72725 -14.68699,21.08099 -0.81659,0.33447 -9.15849,-0.21354 -18.29348,-1.20171 -6.82673,-0.73849 -8.57784,-1.59276 -10.0362,-4.89612 z m -42.37289,-32.35721 c -1.50762,-3.13624 -3.27725,-6.98736 -3.93245,-8.55808 -0.6552,-1.57071 -1.70289,-4.06192 -2.32818,-5.53599 l -1.13691,-2.68016 5.42221,-8.0292 c 7.71152,-11.41946 8.67651,-12.59864 10.45564,-12.77771 0.82711,-0.0833 6.42289,0.33601 12.4351,0.93175 10.45013,1.03544 10.98208,1.15459 12.08639,2.70681 1.94537,2.73459 9.51846,18.59688 10.00564,20.95751 l 0.45857,2.22187 -6.98139,9.75198 c -5.66096,7.90742 -7.20613,9.78799 -8.16947,9.94262 -2.00606,0.32199 -23.88812,-2.01021 -24.75727,-2.63864 -0.44946,-0.32444 -2.05022,-3.15653 -3.55787,-6.29274 z m -76.68803,-101.29722 c -0.38273,-0.57909 -1.86794,-3.69685 -3.30046,-6.92841 -1.43254,-3.23153 -3.49629,-7.56231 -4.58612,-9.62392 -3.15736,-5.97265 -3.30896,-5.39051 4.24552,-16.30405 3.59233,-5.18961 7.09954,-9.82593 7.79377,-10.30292 2.07784,-1.42764 26.26597,1.126 27.4774,2.90088 0.84439,1.23718 4.9188,9.48517 7.88639,15.9648 2.22868,4.8663 2.47822,5.87702 1.81255,7.34129 -0.42456,0.93393 -3.86622,6.03425 -7.64811,11.33403 l -6.87614,9.636 -5.66755,-0.45757 c -9.87645,-0.79739 -18.13615,-1.70024 -19.30801,-2.11051 -0.62344,-0.21813 -1.4465,-0.87061 -1.8293,-1.44957 z m 37.87758,20.5679 c -2.22863,-4.6119 -4.57143,-9.58011 -5.20622,-11.04049 l -1.15416,-2.65523 7.67442,-11.08679 7.67442,-11.0868 9.09688,0.84303 c 5.00328,0.46368 10.50474,0.90887 12.22543,0.98929 1.72072,0.0805 3.47927,0.38901 3.9079,0.68571 1.26793,0.87768 11.15113,20.93013 11.33135,22.99072 0.068,0.77781 -1.96603,4.11655 -6.98517,11.46567 -7.82829,11.46247 -7.33198,11.02969 -11.92827,10.39936 -1.46609,-0.20106 -6.76817,-0.7135 -11.78241,-1.13877 -5.01422,-0.42525 -9.49595,-1.04483 -9.95942,-1.37682 -0.46372,-0.33162 -2.66611,-4.377 -4.89475,-8.98888 z m 40.62012,26.2442 c -2.9239,-6.12479 -5.30566,-11.48738 -5.29282,-11.91688 0.0133,-0.42951 3.13761,-5.28701 6.94399,-10.79441 5.69049,-8.23225 7.17847,-10.1089 8.37083,-10.5499 0.79762,-0.29503 4.01968,-0.25853 7.16019,0.0812 3.14049,0.33968 8.13451,0.77646 11.09784,0.97068 2.9633,0.19428 5.78095,0.62461 6.26144,0.95648 0.48049,0.33188 1.90098,2.62778 3.15662,5.10207 8.83623,17.41226 9.18217,18.20691 8.59967,19.75638 -0.65806,1.7506 -13.90737,19.65582 -14.80959,20.01384 -0.32903,0.13063 -4.46806,-0.12183 -9.19796,-0.56095 -4.72992,-0.43909 -10.20312,-0.84813 -12.16266,-0.90899 -1.95958,-0.0608 -3.84377,-0.31386 -4.18714,-0.56209 -0.34332,-0.24831 -3.01655,-5.46258 -5.94041,-11.58736 z m 88.42676,68.04178 c -0.37592,-0.57569 -1.84338,-3.7191 -3.261,-6.98534 -1.41766,-3.26623 -3.37748,-7.40161 -4.35517,-9.18968 -3.20697,-5.86517 -3.45231,-4.95817 4.41575,-16.3247 3.78351,-5.46583 7.2509,-10.19165 7.70541,-10.50183 1.49355,-1.0194 24.69584,1.2188 26.64881,2.57067 0.8408,0.58202 9.08187,16.75195 11.0117,21.60625 0.27808,0.69951 -1.09799,3.07375 -6.34211,10.94277 -3.6834,5.52722 -7.21764,10.54148 -7.85355,11.14302 -0.95577,0.90393 -2.85091,0.95169 -10.92773,0.27544 -15.25138,-1.27702 -15.61616,-1.35271 -17.04214,-3.53662 z m -82.82028,-114.83519 c -6.3684,-13.18692 -6.83381,-14.31838 -6.39496,-15.5466 0.23101,-0.64666 3.48604,-5.61116 7.23333,-11.03231 l 6.81256,-9.8571 2.34523,-0.0825 c 1.28988,-0.0455 6.4968,0.32751 11.57091,0.82871 5.07409,0.50124 9.88112,0.92969 10.68221,0.95218 0.83844,0.0236 1.73888,0.44922 2.12178,1.00311 1.86615,2.69941 10.10672,20.18075 10.31335,21.87853 0.23475,1.92902 0.1133,2.13945 -7.02951,12.18928 l -7.2685,10.22629 -4.11468,-0.15819 c -5.21587,-0.20063 -21.51853,-1.74468 -22.00963,-2.08458 -0.20348,-0.14091 -2.12172,-3.88361 -4.26288,-8.31728 z"
       id="path19" /></g></svg>
