<?xml version="1.0" encoding="UTF-8" standalone="no"?>
<!-- Created with Inkscape (http://www.inkscape.org/) -->

<svg
   width="455.57642mm"
   height="365.78174mm"
   viewBox="0 0 455.57642 365.78174"
   version="1.1"
   id="svg1"
   xml:space="preserve"
   xmlns:xlink="http://www.w3.org/1999/xlink"
   xmlns="http://www.w3.org/2000/svg"
   xmlns:svg="http://www.w3.org/2000/svg"><defs
     id="defs1"><linearGradient
       id="linearGradient18"><stop
         style="stop-color:#ffffff;stop-opacity:0.64045119;"
         offset="0"
         id="stop18" /><stop
         style="stop-color:#3e3e3e;stop-opacity:0.79180866;"
         offset="1"
         id="stop19" /></linearGradient><linearGradient
       id="linearGradient17"><stop
         style="stop-color:#bc9950;stop-opacity:1;"
         offset="0"
         id="stop16" /><stop
         style="stop-color:#d4bd8e;stop-opacity:1;"
         offset="1"
         id="stop17" /></linearGradient><linearGradient
       id="linearGradient14"><stop
         style="stop-color:#d6d6d6;stop-opacity:1;"
         offset="0"
         id="stop14" /><stop
         style="stop-color:#d4bd8e;stop-opacity:1;"
         offset="1"
         id="stop15" /></linearGradient><linearGradient
       id="linearGradient12"><stop
         style="stop-color:#d4bd8e;stop-opacity:1;"
         offset="0.28822431"
         id="stop12" /><stop
         style="stop-color:#000000;stop-opacity:0.16135751;"
         offset="1"
         id="stop13" /></linearGradient><linearGradient
       xlink:href="#linearGradient12"
       id="linearGradient13"
       x1="88.231117"
       y1="241.67043"
       x2="556.20508"
       y2="241.16542"
       gradientUnits="userSpaceOnUse" /><linearGradient
       xlink:href="#linearGradient14"
       id="linearGradient15"
       x1="90.966331"
       y1="154.39674"
       x2="477.83038"
       y2="153.20415"
       gradientUnits="userSpaceOnUse"
       gradientTransform="translate(8.0364219,4.657605)" /><linearGradient
       xlink:href="#linearGradient17"
       id="linearGradient16"
       gradientUnits="userSpaceOnUse"
       x1="90.966331"
       y1="154.39674"
       x2="477.83038"
       y2="153.20415"
       gradientTransform="translate(33.46123,147.35056)" /><radialGradient
       xlink:href="#linearGradient18"
       id="radialGradient19"
       cx="463.50214"
       cy="91.046898"
       fx="463.50214"
       fy="91.046898"
       r="41.115955"
       gradientUnits="userSpaceOnUse" /></defs><g
     id="layer1"
     transform="translate(-163.42319,197.7597)"><path
       id="path3"
       style="fill:#d4bd8e;fill-opacity:1;stroke-width:0.275"
       d="m 260.47761,-183.28795 a 72.756355,72.756355 0 0 0 -72.75629,72.75628 72.756355,72.756355 0 0 0 72.75629,72.756277 72.756355,72.756355 0 0 0 72.75628,-72.756277 72.756355,72.756355 0 0 0 -72.75628,-72.75628 z m 0,6.59546 a 66.160782,66.160782 0 0 1 66.16082,66.16082 66.160782,66.160782 0 0 1 -66.16082,66.160817 66.160782,66.160782 0 0 1 -66.16082,-66.160817 66.160782,66.160782 0 0 1 66.16082,-66.16082 z m 0,4.50618 a 61.654695,61.654695 0 0 0 -61.65464,61.65464 61.654695,61.654695 0 0 0 61.65464,61.654627 61.654695,61.654695 0 0 0 61.65463,-61.654627 61.654695,61.654695 0 0 0 -61.65463,-61.65464 z m 0,5.58881 a 56.065519,56.065519 0 0 1 56.06531,56.06583 56.065519,56.065519 0 0 1 -56.06531,56.065307 56.065519,56.065519 0 0 1 -56.06583,-56.065307 56.065519,56.065519 0 0 1 56.06583,-56.06583 z m 0,6.78512 a 49.280286,49.280286 0 0 0 -49.2802,49.28071 49.280286,49.280286 0 0 0 49.2802,49.280187 49.280286,49.280286 0 0 0 49.28019,-49.280187 49.280286,49.280286 0 0 0 -49.28019,-49.28071 z m 0,4.46742 a 44.812885,44.812885 0 0 1 44.81277,44.81329 44.812885,44.812885 0 0 1 -44.81277,44.812767 44.812885,44.812885 0 0 1 -44.81329,-44.812767 44.812885,44.812885 0 0 1 44.81329,-44.81329 z m 0,5.63377 a 39.179142,39.179142 0 0 0 -39.17952,39.17952 39.179142,39.179142 0 0 0 39.17952,39.178997 39.179142,39.179142 0 0 0 39.179,-39.178997 39.179142,39.179142 0 0 0 -39.179,-39.17952 z m 0,3.55172 a 35.62744,35.62744 0 0 1 35.62728,35.6278 35.62744,35.62744 0 0 1 -35.62728,35.627277 35.62744,35.62744 0 0 1 -35.6278,-35.627277 35.62744,35.62744 0 0 1 35.6278,-35.6278 z m 0,7.20886 a 28.418962,28.418962 0 0 0 -28.41894,28.41894 28.418962,28.418962 0 0 0 28.41894,28.418937 28.418962,28.418962 0 0 0 28.41893,-28.418937 28.418962,28.418962 0 0 0 -28.41893,-28.41894 z m 0,2.57607 a 25.842701,25.842701 0 0 1 25.84235,25.84287 25.842701,25.842701 0 0 1 -25.84235,25.842347 25.842701,25.842701 0 0 1 -25.84287,-25.842347 25.842701,25.842701 0 0 1 25.84287,-25.84287 z m 0,4.43126 a 21.4115,21.4115 0 0 0 -21.41162,21.41161 21.4115,21.4115 0 0 0 21.41162,21.411087 21.4115,21.4115 0 0 0 21.41109,-21.411087 21.4115,21.4115 0 0 0 -21.41109,-21.41161 z m 0,1.94096 a 19.470486,19.470486 0 0 1 19.47013,19.47065 19.470486,19.470486 0 0 1 -19.47013,19.470127 19.470486,19.470486 0 0 1 -19.47065,-19.470127 19.470486,19.470486 0 0 1 19.47065,-19.47065 z" /><rect
       style="fill:url(#linearGradient15);fill-opacity:1;stroke-width:0.261459"
       id="rect11"
       width="427.21609"
       height="26.577888"
       x="79.11528"
       y="145.94667"
       ry="13.288944"
       transform="matrix(0.78572221,-0.61857951,0.65583485,0.7549044,0,0)" /><rect
       style="fill:url(#linearGradient13);fill-opacity:1;stroke-width:0.275"
       id="rect10"
       width="485.49319"
       height="82.499847"
       x="83.586761"
       y="196.42653"
       ry="41.249924"
       transform="rotate(-39.180414)" /><rect
       style="fill:url(#linearGradient16);fill-opacity:1;stroke-width:0.261459"
       id="rect15"
       width="427.21609"
       height="26.577888"
       x="104.54008"
       y="288.63965"
       ry="13.288944"
       transform="matrix(0.78572221,-0.61857951,0.65583485,0.7549044,0,0)" /><path
       id="path1"
       style="fill:#000000;stroke-width:0.275"
       d="M 394.11806,-163.70267 A 140.20523,140.20523 0 0 0 253.91267,-23.497791 140.20523,140.20523 0 0 0 394.11806,116.7076 140.20523,140.20523 0 0 0 534.32294,-23.497791 140.20523,140.20523 0 0 0 394.11806,-163.70267 Z m 0,6.50916 A 133.69609,133.69609 0 0 1 527.81378,-23.497791 133.69609,133.69609 0 0 1 394.11806,110.19844 133.69609,133.69609 0 0 1 260.42183,-23.497791 133.69609,133.69609 0 0 1 394.11806,-157.19351 Z m -5.1e-4,7.25072 A 126.4453,126.4453 0 0 0 267.67255,-23.497791 126.4453,126.4453 0 0 0 394.11755,102.94772 126.4453,126.4453 0 0 0 520.56306,-23.497791 126.4453,126.4453 0 0 0 394.11755,-149.94279 Z" /><path
       id="path2"
       style="fill:url(#radialGradient19);stroke-width:0.0806453"
       d="M 463.5022,49.93094 A 41.115981,41.115981 0 0 0 422.38617,91.046818 41.115981,41.115981 0 0 0 463.5022,132.16285 41.115981,41.115981 0 0 0 504.61808,91.046818 41.115981,41.115981 0 0 0 463.5022,49.93094 Z m 0,1.908848 A 39.207139,39.207139 0 0 1 502.70923,91.046818 39.207139,39.207139 0 0 1 463.5022,130.254 39.207139,39.207139 0 0 1 424.29502,91.046818 39.207139,39.207139 0 0 1 463.5022,51.839788 Z m -1.5e-4,2.126315 a 37.080804,37.080804 0 0 0 -37.08072,37.080715 37.080804,37.080804 0 0 0 37.08072,37.080872 37.080804,37.080804 0 0 0 37.08086,-37.080872 37.080804,37.080804 0 0 0 -37.08086,-37.080715 z" /></g></svg>
