<?xml version="1.0" encoding="UTF-8" standalone="no"?>
<!-- Created with Inkscape (http://www.inkscape.org/) -->

<svg
   width="115.74196mm"
   height="115.74207mm"
   viewBox="0 0 115.74196 115.74207"
   version="1.1"
   id="svg1"
   xml:space="preserve"
   xmlns="http://www.w3.org/2000/svg"
   xmlns:svg="http://www.w3.org/2000/svg"><defs
     id="defs1" /><g
     id="layer1"
     transform="translate(-245.85204,-93.595006)"><path
       d="m 245.85205,106.26864 v 39.55521 c 0,4.49792 1.77271,8.81063 4.94771,11.98563 l 46.56666,46.56667 c 6.61459,6.61458 17.33021,6.61458 23.9448,0 l 35.32187,-35.32188 c 6.61458,-6.61459 6.61458,-17.33021 0,-23.94479 L 310.06642,98.542809 c -3.175,-3.175 -7.4877,-4.947708 -11.98562,-4.947708 h -39.52875 c -7.01146,-0.02646 -12.7,5.662083 -12.7,12.673539 z m 29.63333,8.46667 a 8.466667,8.466667 0 1 1 0,16.93333 8.466667,8.466667 0 1 1 0,-16.93333 z"
       id="path1-6"
       style="fill:#333333;stroke-width:0.264583" /></g></svg>
